<svg width="177" height="153" viewBox="0 0 177 153" fill="none" xmlns="http://www.w3.org/2000/svg">
<path fill-rule="evenodd" clip-rule="evenodd" d="M174.602 8.35283C184.733 57.7818 136.539 96.7738 136.539 96.7738L144.556 101.4C113.393 145.497 86.4497 140.22 86.4497 140.22L92.7417 144.265C68.5507 167.715 10.1497 136.471 10.1497 136.471C36.5617 137.894 61.3077 123.947 73.5147 95.1608C50.9377 116.275 35.1647 127.963 3.40465 128.621C3.40465 128.621 -10.6843 63.8608 18.4587 46.9688L20.6257 54.1338C20.6257 54.1338 22.9117 26.7478 73.8007 8.78283L76.0587 17.7608C76.0587 17.7608 129.858 -14.8942 174.602 8.35283Z" fill="url(#paint0_linear)"/>
<path fill-rule="evenodd" clip-rule="evenodd" d="M174.602 8.35283C184.733 57.7818 136.539 96.7738 136.539 96.7738L144.556 101.4C113.393 145.497 86.4497 140.22 86.4497 140.22L92.7417 144.265C68.5507 167.715 10.1497 136.471 10.1497 136.471C36.5617 137.894 61.3077 123.947 73.5147 95.1608C50.9377 116.275 35.1647 127.963 3.40465 128.621C3.40465 128.621 -10.6843 63.8608 18.4587 46.9688L20.6257 54.1338C20.6257 54.1338 22.9117 26.7478 73.8007 8.78283L76.0587 17.7608C76.0587 17.7608 129.858 -14.8942 174.602 8.35283Z" fill="url(#paint1_linear)"/>
<defs>
<linearGradient id="paint0_linear" x1="88.0176" y1="5.86944e-06" x2="176.018" y2="290" gradientUnits="userSpaceOnUse">
<stop stop-color="#FF1616"/>
<stop offset="1" stop-color="#081FFF"/>
</linearGradient>
<linearGradient id="paint1_linear" x1="88.0006" y1="0" x2="88.0006" y2="152.99" gradientUnits="userSpaceOnUse">
<stop stop-color="white" stop-opacity="0.37"/>
<stop offset="1" stop-color="white" stop-opacity="0"/>
</linearGradient>
</defs>
</svg>
