<svg viewBox="0 0 14 14"   xmlns="http://www.w3.org/2000/svg">
<path fill-rule="evenodd" clip-rule="evenodd" d="M4.375 14H9.625C12.0409 14 14 12.0409 14 9.62503V4.37503C14 1.95916 12.0409 3.05176e-05 9.625 3.05176e-05H4.375C1.95913 3.05176e-05 0 1.95916 0 4.37503V9.62503C0 12.0409 1.95913 14 4.375 14ZM7 10.5C8.93288 10.5 10.5 8.93288 10.5 7.00001C10.5 5.06713 8.93288 3.50001 7 3.50001C5.06713 3.50001 3.5 5.06713 3.5 7.00001C3.5 8.93288 5.06713 10.5 7 10.5ZM2.77109 10.7625C2.77109 10.5049 2.9799 10.2961 3.23747 10.2961C3.49504 10.2961 3.70384 10.5049 3.70384 10.7625C3.70384 11.0201 3.49504 11.2289 3.23747 11.2289C2.9799 11.2289 2.77109 11.0201 2.77109 10.7625Z"  />
</svg>
