<svg width="650" height="137" viewBox="0 0 650 137" fill="none" xmlns="http://www.w3.org/2000/svg">
<g filter="url(#filter0_d)">
<path d="M41.5703 39.4473H56.2227C69.6641 39.4473 79.6341 41.8288 86.1328 46.5918C92.6315 51.3145 95.8809 58.681 95.8809 68.6914C95.8809 76.8854 92.8939 83.1621 86.9199 87.5215C80.9863 91.8405 72.4492 94 61.3086 94H14.2031V5.23828H88.918V23.2207H41.5703V39.4473ZM41.5703 74.9277H55.6172C64.2148 74.9277 68.5137 71.8197 68.5137 65.6035C68.5137 60.1543 64.2148 57.4297 55.6172 57.4297H41.5703V74.9277Z" fill="white" fill-opacity="0.9"/>
<path d="M147.673 5.23828H193.264C203.194 5.23828 210.621 7.59961 215.546 12.3223C220.511 17.0449 222.993 23.7656 222.993 32.4844C222.993 41.4453 220.289 48.4486 214.88 53.4941C209.511 58.5397 201.297 61.0625 190.237 61.0625H175.221V94H147.673V5.23828ZM175.221 43.0801H181.942C187.23 43.0801 190.943 42.1719 193.083 40.3555C195.222 38.4987 196.292 36.1374 196.292 33.2715C196.292 30.4863 195.363 28.125 193.507 26.1875C191.65 24.25 188.158 23.2812 183.032 23.2812H175.221V43.0801Z" fill="white" fill-opacity="0.9"/>
<path d="M274.543 5.23828H348.046V24.1895H302.031V38.2969H344.716V56.4004H302.031V73.8984H349.379V94H274.543V5.23828Z" fill="white" fill-opacity="0.9"/>
<path d="M401.534 5.23828H428.961V36.2988H458.932V5.23828H486.481V94H458.932V58.0957H428.961V94H401.534V5.23828Z" fill="white" fill-opacity="0.9"/>
<path d="M635.027 113.314H612.927V94H556.255V113.314H534.216V73.5352H543.359C548.485 59.2057 551.048 43.0397 551.048 25.0371V5.23828H625.46V73.5352H635.027V113.314ZM598.032 73.5352V27.0352H575.993V28.1855C575.993 40.4564 573.915 55.5729 569.757 73.5352H598.032Z" fill="white" fill-opacity="0.9"/>
</g>
 
</svg>
