<svg   xmlns="http://www.w3.org/2000/svg">
<path d="M6.23096 11.0791H16.0762C15.9205 11.3212 15.7649 11.5863 15.592 11.8746C15.5574 11.938 15.517 12.0014 15.4825 12.0648H6.23096V11.0791Z"/>
<path d="M6.23096 17.5922H13.1134C13.0846 17.7363 13.0557 17.8746 13.0327 18.0129C13.0154 18.0936 13.0039 18.1801 12.9866 18.2608C12.975 18.3127 12.9693 18.3703 12.952 18.5548C12.952 18.5605 12.952 18.5663 12.952 18.5721H6.23096V17.5922Z"/>
<path d="M11.0152 24.0479H6.23096V25.0278H11.0152V24.0479Z"/>
<path d="M12.5138 22.9645C12.3467 23.2527 12.1795 23.5351 12.0181 23.8233C12.0008 23.8522 12.0123 23.8983 12.0239 23.9386C12.1334 24.3421 12.191 24.7398 12.0815 25.1606C12.0988 25.1433 12.1103 25.1318 12.1276 25.1088C12.3467 24.809 12.6118 24.5669 12.9577 24.4171C12.998 24.3998 13.0441 24.3536 13.0556 24.3133C13.1421 23.9674 13.217 23.6158 13.3035 23.2527C13.0384 23.1605 12.7847 23.0625 12.5138 22.9645ZM12.7847 24.0885C12.7674 24.1922 12.681 24.2787 12.5715 24.2787C12.4504 24.2787 12.3467 24.1807 12.3467 24.0597C12.3467 23.9386 12.4389 23.8349 12.5657 23.8349C12.6694 23.8349 12.7559 23.8983 12.7847 23.9963C12.7905 23.9963 12.7905 24.002 12.7963 24.002C12.7963 24.0308 12.802 24.0539 12.802 24.0827C12.7905 24.0827 12.7905 24.0885 12.7847 24.0885Z"/>
<path d="M13.5803 22.711C13.5227 22.8551 13.4708 22.9704 13.4189 23.103C13.125 22.9935 12.8425 22.884 12.5312 22.7687C12.5774 22.6592 12.6177 22.5612 12.6581 22.4516C12.6696 22.4286 12.6811 22.3998 12.6869 22.3767C12.9693 22.4805 13.2345 22.5842 13.5169 22.6937C13.54 22.6937 13.563 22.6995 13.5803 22.711Z"/>
<path d="M22.0079 6.9458C22.1059 7.00344 22.129 7.05532 22.0483 7.14755C21.7197 7.52222 21.3912 7.90265 21.0741 8.28885C20.1403 9.41863 19.2699 10.5888 18.4745 11.8165C18.071 12.4391 17.679 13.0616 17.2986 13.6956C16.9989 14.1971 16.7337 14.7101 16.4513 15.2232C15.8806 16.2376 15.4137 17.304 14.9353 18.3589C14.7451 18.7796 14.5894 19.2235 14.4223 19.6558C14.3992 19.7192 14.3877 19.7826 14.3012 19.7538C14.2032 19.725 14.2551 19.65 14.2724 19.6039C14.3358 19.4137 14.405 19.2235 14.4799 19.0448C14.8373 18.2321 15.1831 17.4135 15.5578 16.6123C15.8345 16.0244 16.14 15.448 16.457 14.8773C16.8144 14.2317 17.1775 13.5861 17.5637 12.9578C17.9326 12.3468 18.3361 11.7589 18.7223 11.1594C18.7281 11.1479 18.7339 11.1306 18.7108 11.096C18.6416 11.1882 18.5725 11.2747 18.5091 11.3669C18.0249 12.0874 17.5292 12.8022 17.0565 13.5343C16.7625 13.9954 16.5031 14.4738 16.2265 14.9522C15.7596 15.7592 15.3618 16.6008 14.9814 17.4481C14.8315 17.7824 14.7105 18.1225 14.5721 18.4626C14.5664 18.4857 14.5606 18.5087 14.5433 18.5203C14.5087 18.5433 14.4684 18.5548 14.428 18.5721C14.4165 18.5376 14.3934 18.4972 14.3992 18.4626C14.4511 18.307 14.503 18.1456 14.5664 17.9957C14.82 17.4135 15.0679 16.8256 15.3445 16.2549C15.6097 15.7189 15.9037 15.1943 16.1919 14.6698C16.7625 13.6322 17.4023 12.6408 18.0825 11.6724C18.7396 10.7386 19.4256 9.83365 20.1691 8.96326C20.6072 8.45601 21.0511 7.95453 21.5007 7.45305C21.6678 7.28012 21.8408 7.11296 22.0079 6.9458Z"/>
<path d="M26.809 1.67737C26.7974 1.51021 26.7801 1.34305 26.7628 1.18166C26.7571 1.10672 26.7455 1.02602 26.7398 0.951089V0.93956L26.6591 0.720522L26.7167 0.639823L26.5323 0L26.3248 0.265152C26.3132 0.27668 26.3075 0.288209 26.2959 0.299737C26.2729 0.328558 26.2441 0.357379 26.2268 0.397728C25.9731 0.899211 25.6388 1.38917 25.1662 1.93676C24.4456 2.7841 23.6905 3.63143 22.9239 4.45571C22.5435 4.86496 22.14 5.26269 21.748 5.64889C21.5808 5.81605 21.4079 5.98321 21.2408 6.15037C21.235 6.15037 21.235 6.15614 21.2292 6.15614C21.2235 6.1619 21.2177 6.16767 21.2062 6.16767C21.1774 6.18496 21.137 6.21954 21.0275 6.33483C20.9929 6.36941 20.9583 6.404 20.9353 6.42129C20.8373 6.51352 20.7335 6.59998 20.6355 6.68644C20.4165 6.88242 20.1859 7.08417 19.9726 7.29744C19.3674 7.91997 18.7737 8.53098 18.2146 9.1708C17.8111 9.63193 17.4133 10.1449 17.0041 10.7329C16.6525 11.2401 16.2951 11.7935 15.8628 12.5255C15.6149 12.9406 15.3786 13.3902 15.1653 13.8571C14.8944 14.4508 14.5889 15.1425 14.3353 15.8399C14.122 16.4221 13.9548 17.0274 13.7877 17.6153L13.7243 17.8344C13.6609 18.0707 13.6148 18.307 13.5744 18.5376C13.5571 18.624 13.5456 18.7047 13.5283 18.7912C13.5225 18.8258 13.5168 18.8892 13.4995 19.0506C13.4707 19.3676 13.4072 20.0997 13.3265 20.3014V20.3072C13.2286 20.5608 13.1248 20.8605 13.021 21.1776C12.9576 21.3678 12.8885 21.5638 12.8193 21.754L12.6694 22.1748L12.6983 22.1863L12.6925 22.2094L13.0095 22.3304L13.0153 22.3074L13.096 22.3362L13.0845 22.3535L13.609 22.5552L13.7127 22.365C13.7877 22.2267 13.8626 22.0825 13.9376 21.95C13.9491 21.9327 14.3007 21.3159 14.5313 20.8951C15.5458 20.1631 16.1971 19.6674 17.5863 18.5145L17.7995 18.2724C18.0359 18.0015 18.2607 17.7421 18.4855 17.4827C18.5143 17.4482 18.5316 17.4136 18.5489 17.379C18.5604 17.3617 18.5662 17.3386 18.5777 17.3271L18.5892 17.3098C18.595 17.2983 18.6065 17.281 18.6181 17.2695C18.8659 17.2176 19.0043 17.0447 19.1368 16.8775L19.1657 16.8429C19.4193 16.5259 19.6671 16.2146 19.9208 15.9034C20.0706 15.7131 20.2263 15.5287 20.3761 15.3385C20.405 15.3039 20.4338 15.2578 20.4453 15.1655L20.4568 15.0733C20.5952 15.0041 20.6701 14.8889 20.7393 14.7851L20.7623 14.7505C21.0851 14.2606 21.4079 13.7648 21.7192 13.2807L21.8287 13.1077C21.846 13.0847 21.8518 13.0616 21.8575 13.0386C21.8633 13.027 21.8633 13.0155 21.8691 12.9982L21.9152 12.8656C22.0477 12.7907 22.1342 12.6927 22.1918 12.5544C22.3417 12.2085 22.5031 11.8684 22.6587 11.5341L22.7049 11.4419C22.7452 11.3612 22.7856 11.2805 22.8259 11.1998C22.8547 11.1479 22.8778 11.1018 22.9066 11.0499C22.9181 11.0211 22.9297 10.9923 22.947 10.9577C22.9527 10.9404 22.9642 10.9173 22.97 10.8943L23.0219 10.7559L22.7567 10.7905C22.7625 10.7675 22.774 10.7387 22.7856 10.7156C23.0219 10.6925 23.166 10.4908 23.2409 10.3236C23.3216 10.1449 23.4023 9.96626 23.4888 9.79333C23.5983 9.557 23.7078 9.32643 23.8231 9.0901C23.9153 8.89412 24.0076 8.69814 24.0998 8.50792C24.1401 8.42146 24.1805 8.33499 24.2208 8.24277C24.2439 8.19665 24.2612 8.15054 24.2842 8.09866L24.3476 7.96032L24.094 7.98914C24.0998 7.98338 24.1056 7.97762 24.1113 7.97762C24.2324 7.90845 24.3534 7.8508 24.4745 7.81622C24.6243 7.76434 24.682 7.66059 24.7166 7.56836C24.803 7.33779 24.8895 7.10146 24.9875 6.83631C25.0451 6.68068 25.1085 6.52504 25.1662 6.36941C25.2238 6.21954 25.2872 6.06391 25.3449 5.91404C25.3967 5.78147 25.4428 5.65465 25.4947 5.52208C25.5985 5.2454 25.708 4.95719 25.8233 4.67474C25.8579 4.58252 25.8924 4.46723 25.829 4.34042C25.8175 4.31737 25.806 4.28855 25.8002 4.25972C25.7945 4.23667 25.7829 4.21361 25.7714 4.19055C25.7656 4.1675 25.7599 4.16173 25.7599 4.16173C25.7599 4.16173 25.7656 4.15021 25.7887 4.13868C26.1172 3.91964 26.3766 3.63143 26.5438 3.26829C26.7571 2.80139 26.8435 2.28261 26.809 1.67737ZM13.3208 21.8635C13.3784 21.7079 13.4361 21.558 13.4937 21.4024C13.6032 21.1026 13.7243 20.7971 13.8223 20.4859C13.8972 20.2438 13.9318 19.9902 13.9548 19.7481C14.0644 18.6298 14.3122 17.4943 14.7042 16.3703C14.8368 15.9841 14.9924 15.5979 15.1365 15.2174C15.1999 15.0618 15.2633 14.9004 15.321 14.7448C15.344 14.6929 15.3613 14.641 15.3844 14.5891C15.3901 14.6064 15.3959 14.6237 15.4017 14.641C15.4305 14.7332 15.4593 14.8255 15.4939 14.9119C15.5169 14.9696 15.5688 14.9926 15.6092 15.0157C15.6207 15.0214 15.6322 15.0272 15.6437 15.033L15.736 15.0964L15.7475 15.0675L15.8628 15.1482L15.9435 14.9465C15.9492 14.935 15.9492 14.9292 15.955 14.9177C15.9723 14.8831 15.9896 14.837 16.0011 14.7793C16.0069 14.7102 15.9838 14.6525 15.9665 14.6237C15.9665 14.6179 15.9608 14.6122 15.9608 14.6064C15.9377 14.543 15.9147 14.4796 15.8916 14.4162C15.834 14.249 15.7706 14.0819 15.7187 13.909C15.7187 13.9032 15.7244 13.8974 15.7302 13.8859C15.8051 13.7476 15.8743 13.6092 15.9492 13.4709C16.1337 13.1193 16.3239 12.7504 16.5372 12.4045C16.8658 11.8627 17.2347 11.3266 17.592 10.8136L17.6151 10.7848C17.7534 10.583 17.9033 10.3928 18.0647 10.1853C18.0705 10.2084 18.0762 10.2256 18.082 10.2487C18.0935 10.2833 18.0993 10.3236 18.105 10.3582C18.1166 10.4159 18.1281 10.4735 18.1512 10.5311C18.1685 10.583 18.2088 10.6118 18.2376 10.6349C18.2492 10.6407 18.2549 10.6464 18.2607 10.658L18.3414 10.7387L18.3587 10.7041L18.4509 10.7905L18.5604 10.5888C18.5662 10.583 18.5719 10.5715 18.5777 10.5657C18.6065 10.5254 18.6584 10.4504 18.6411 10.3582C18.6181 10.2314 18.5892 10.1046 18.5604 9.98931L18.5431 9.92591C18.5316 9.88556 18.5201 9.85097 18.5085 9.81062C18.497 9.76451 18.4797 9.7184 18.474 9.67805V9.67228C19.0619 8.96329 19.696 8.28888 20.3588 7.66059L20.6701 7.36661C21.2926 6.77867 21.9325 6.17343 22.555 5.56819C23.0853 5.04365 23.6156 4.50182 24.1228 3.94269C24.7511 3.25676 25.4832 2.43248 26.1173 1.53903C26.1749 1.45834 26.2268 1.37764 26.2844 1.29694C26.3017 1.41799 26.2959 1.52174 26.2095 1.63126C26.1345 1.72349 26.0827 1.83877 26.0481 1.94253C26.025 1.9944 26.0423 2.05205 26.0481 2.09239C26.0538 2.10392 26.0538 2.12122 26.0538 2.13274L26.0711 2.25956L26.1807 2.19615C26.1922 2.19039 26.2037 2.18462 26.2152 2.17886C26.2383 2.16733 26.2614 2.1558 26.2844 2.14427C26.2614 2.38637 26.2095 2.61117 26.1173 2.83597C25.9443 3.26829 25.6792 3.58532 25.293 3.81012C25.2238 3.85047 25.1892 3.91387 25.1489 3.97728C25.1316 4.0061 25.1143 4.03492 25.097 4.05798C24.9875 4.19632 24.8722 4.32889 24.7627 4.46147C24.6993 4.54217 24.6301 4.6171 24.5667 4.6978C24.5609 4.70357 24.5552 4.70933 24.5494 4.71509C24.5263 4.74391 24.4918 4.7785 24.4802 4.82461C24.4687 4.87073 24.4745 4.91108 24.4802 4.95143C24.4802 4.96295 24.4802 4.97448 24.486 4.99177L24.4918 5.10706L24.6013 5.06671C24.6128 5.06094 24.6243 5.06094 24.6359 5.05518C24.6762 5.04365 24.7223 5.03212 24.7569 4.99177C24.901 4.82461 25.0393 4.65169 25.1777 4.48453C25.2238 4.43265 25.2642 4.37501 25.3103 4.32313C25.3276 4.37501 25.316 4.43265 25.2814 4.51911C25.218 4.68051 25.1546 4.83614 25.0912 4.99754C24.9817 5.27998 24.8664 5.55666 24.7569 5.83911C24.7166 5.9371 24.682 6.02933 24.6416 6.12732C24.5033 6.47317 24.3649 6.82478 24.2439 7.18216C24.192 7.33203 24.0825 7.37814 23.9499 7.43578C23.9326 7.44155 23.9153 7.44731 23.9038 7.45884C23.264 7.74705 22.7683 8.02373 22.3475 8.34076C22.1976 8.45028 22.0535 8.59438 21.8979 8.7846L21.6846 9.04399L23.581 8.27735L23.4542 8.5598C23.2352 9.03822 23.0104 9.52818 22.7856 10.0124C22.7567 10.07 22.7049 10.1277 22.653 10.1507C21.7884 10.5427 20.9929 11.0269 20.3992 11.4015C20.1629 11.5514 19.9381 11.7013 19.696 11.8627C19.5922 11.9318 19.4827 12.0068 19.3732 12.0759L19.3098 12.1163L19.4654 12.416L19.5461 12.3699C20.4568 11.8454 21.3445 11.4246 22.2437 11.096C22.2149 11.1594 22.1861 11.2228 22.1573 11.2805C21.9901 11.6321 21.8229 11.9952 21.6443 12.3469C21.6212 12.3987 21.5347 12.4391 21.4656 12.4794L21.4367 12.4967C21.0909 12.6869 20.7393 12.8772 20.3877 13.0674C20.1744 13.1827 19.9669 13.2922 19.7536 13.4075C19.6441 13.4651 19.5346 13.5285 19.425 13.5919C19.3732 13.6207 19.3155 13.6553 19.2636 13.6841L19.2002 13.7187L19.2233 13.7879C19.2291 13.8052 19.2348 13.8167 19.2406 13.8283L19.2694 13.909L21.039 13.2518C20.9987 13.3152 20.9641 13.3844 20.9237 13.4478C20.8488 13.5631 20.7796 13.6726 20.7047 13.7821C20.5606 14.0012 20.4107 14.2317 20.2781 14.4565C20.2147 14.5603 20.1225 14.6064 20.013 14.6641C19.8343 14.7563 19.6498 14.8485 19.4712 14.9407C19.3616 14.9984 19.2464 15.0503 19.1368 15.1079C18.9409 15.2059 18.7506 15.3096 18.5547 15.4076L18.3299 15.5229C18.0186 15.6843 17.7073 15.8457 17.3961 16.0071C17.3557 16.0302 17.3269 16.0648 17.3096 16.1109L17.2692 16.2377L17.4018 16.2204H17.4076C17.4191 16.2204 17.4422 16.2204 17.4595 16.2089C17.6151 16.157 17.7707 16.0993 17.9206 16.0475C18.1973 15.9495 18.474 15.8515 18.7506 15.7592C19.0158 15.667 19.2464 15.5979 19.4596 15.5344C19.4193 15.5863 19.3789 15.6382 19.3386 15.6901L19.2579 15.7938C19.0388 16.0648 18.814 16.3414 18.5892 16.6066C18.5374 16.6642 18.474 16.7161 18.4105 16.7392C18.0474 16.8833 17.6727 17.0274 17.3096 17.1657C16.9926 17.2868 16.6813 17.4078 16.3643 17.5346C16.1856 17.6038 16.0127 17.6902 15.8224 17.7998L15.2172 18.1514L17.7765 17.4193C17.7131 17.4943 17.6439 17.5692 17.5747 17.6384C16.8312 18.3762 16.0011 19.0448 15.2748 19.6155C15.125 19.7308 14.9693 19.846 14.8195 19.9613C14.6004 20.1227 14.3756 20.2899 14.1624 20.4686C14.0528 20.5608 13.9894 20.6876 13.926 20.8144C13.9145 20.8433 13.8972 20.8663 13.8857 20.8951C13.6897 21.264 13.4937 21.6272 13.2862 22.0134C13.2862 21.9615 13.3035 21.9096 13.3208 21.8635Z"/>
<path d="M23.2065 5.73566C23.2469 5.69531 23.2757 5.67225 23.2987 5.64343C23.7253 5.17077 24.1461 4.69811 24.5726 4.22544C24.6706 4.11592 24.7686 4.01217 24.8551 3.89689C24.8781 3.86806 24.8608 3.80466 24.8608 3.75854C24.8205 3.77007 24.7628 3.76431 24.7398 3.78737C24.6764 3.83924 24.6303 3.91418 24.5784 3.97182C24.1115 4.4906 23.6446 5.00361 23.1777 5.52238C23.1546 5.54544 23.1316 5.56273 23.1201 5.59155C23.1085 5.62037 23.097 5.66649 23.1143 5.68378C23.1316 5.71836 23.1777 5.72413 23.2065 5.73566Z"/>
<path d="M24.8897 7.99515C24.8839 8.00091 24.8839 8.00668 24.8782 8.01821C24.5381 8.7272 24.1922 9.43619 23.8521 10.1452C23.5755 10.7216 23.293 11.2923 23.0336 11.8687V33.1327H8.21395C7.07264 33.1327 6.00627 32.833 5.084 32.3142C3.41239 31.3746 2.22497 29.7088 1.95982 27.7605C1.92523 27.4896 1.90218 27.2187 1.90218 26.942V2.68058H16.7219C18.699 2.68058 20.4686 3.57979 21.6272 4.98049C21.6791 4.92861 21.7309 4.88249 21.777 4.83638C22.1632 4.46747 22.561 4.08127 22.9299 3.68931C22.9414 3.67778 22.9529 3.66049 22.9702 3.64896C21.4658 1.91395 19.2235 0.812988 16.7219 0.812988H0V26.942C0 31.3862 3.68331 35.0003 8.21395 35.0003H24.9358V8.8713C24.9358 8.57733 24.9243 8.28336 24.8897 7.99515Z"/>
</svg>
