<svg width="46" height="43" viewBox="0 0 46 43" fill="none" xmlns="http://www.w3.org/2000/svg">
<path d="M40.5719 9.62387L38.5427 11.6844C41.2734 15.2332 42.7765 19.6469 42.7765 24.1623C42.7765 29.8734 40.4466 35.2284 36.3381 39.0697L33.2817 35.9788C36.4634 33.066 38.4675 28.8559 38.4675 24.1751C38.4675 20.6772 37.3527 17.4464 35.4613 14.8135C34.835 13.9358 34.1085 13.1217 33.3193 12.3967C30.5385 9.8401 26.8559 8.2756 22.8225 8.2756C19.9164 8.2756 17.1231 9.07693 14.6805 10.5906L11.5616 7.44882C14.8559 5.1593 18.8016 3.91278 22.8225 3.91278C23.6367 3.91278 24.4509 3.96366 25.2651 4.06542C29.2609 4.58692 33.1064 6.36766 36.1126 9.06421L38.1418 7.00364C37.8287 6.71109 37.503 6.43126 37.1648 6.15143V6.13871C35.7368 4.96851 34.1711 3.97638 32.5177 3.18777H32.5051C32.3673 3.12417 32.2421 3.06057 32.1043 2.99698C32.0667 2.98426 32.0291 2.97154 32.0041 2.9461C31.9039 2.89522 31.7911 2.85706 31.6909 2.80618C31.6283 2.78074 31.5657 2.7553 31.503 2.72987C31.4279 2.69171 31.3527 2.66627 31.2776 2.64083C31.1899 2.60267 31.0897 2.56451 31.002 2.52635C30.9519 2.50091 30.9018 2.48819 30.8517 2.46275C30.7389 2.4246 30.6137 2.37372 30.501 2.33556C30.4759 2.32284 30.4508 2.31012 30.4133 2.31012C30.2755 2.25924 30.1377 2.20836 29.9999 2.1702C29.9874 2.1702 29.9874 2.1702 29.9749 2.15749C28.096 1.52151 26.1294 1.13992 24.1377 1.02544C18.9394 0.720174 13.7411 2.24652 9.5198 5.32466L9.53233 5.33738L9.5198 5.3501C9.1816 5.59177 8.8434 5.85888 8.51772 6.12599C8.50519 6.13871 8.50519 6.13871 8.49267 6.15143C8.05426 6.50758 7.65342 6.88916 7.32774 7.24531L14.4927 14.5209C14.4927 14.5209 15.858 13.2744 16.7974 12.7529C18.6513 11.7353 20.7056 11.2138 22.8475 11.2138C26.0918 11.2138 29.0605 12.4476 31.3277 14.4827C32.1293 15.2078 32.8433 16.0218 33.4446 16.9249C34.835 18.9982 35.6492 21.5039 35.6492 24.2005C35.6492 31.3616 29.9122 37.1872 22.8601 37.1872C15.8079 37.1872 10.071 31.3616 10.071 24.2005C10.071 21.593 10.8225 19.0999 12.238 16.9631L10.2588 14.9534L10.1712 14.8898C8.22962 17.6118 7.20248 20.8298 7.20248 24.2005C7.20248 28.8813 9.20665 33.0915 12.3883 36.0042L9.33191 39.1078C5.22337 35.2665 2.89352 29.9116 2.89352 24.2005C2.89352 19.6978 4.38412 15.2968 7.10228 11.748L5.03548 9.66203C1.79123 13.7577 0 18.9092 0 24.1751C0 31.209 3.09394 37.7723 8.48014 42.1987L9.49475 43L10.3841 42.0969L14.668 37.7468C17.048 39.2223 19.8288 40.0745 22.81 40.0745C25.7912 40.0745 28.5845 39.2223 30.9519 37.7468L35.2358 42.0969L36.1377 43L37.1398 42.1987C42.526 37.7723 45.6074 31.209 45.6074 24.1751C45.6324 18.8964 43.8412 13.7196 40.5719 9.62387Z" fill="#E65D1A"/>
<path d="M24.2505 16.9503H21.382V31.3997H24.2505V16.9503Z" fill="#E65D1A"/>
</svg>
