<svg width="56" height="56" viewBox="0 0 56 56" fill="none" xmlns="http://www.w3.org/2000/svg">
<path d="M8.3125 26.25C9.63611 26.25 10.8341 25.7189 11.7194 24.8661L16.5759 27.2942C16.5515 27.492 16.5156 27.6864 16.5156 27.8906C16.5156 30.6045 18.7236 32.8125 21.4375 32.8125C24.1514 32.8125 26.3594 30.6045 26.3594 27.8906C26.3594 27.1331 26.1731 26.4239 25.8659 25.7822L32.454 19.194C33.0958 19.5012 33.805 19.6875 34.5625 19.6875C37.2764 19.6875 39.4844 17.4795 39.4844 14.7656C39.4844 14.2546 39.384 13.7714 39.2387 13.3079L44.963 9.01575C45.744 9.53741 46.6801 9.84375 47.6875 9.84375C50.4014 9.84375 52.6094 7.63574 52.6094 4.92188C52.6094 2.20801 50.4014 0 47.6875 0C44.9736 0 42.7656 2.20801 42.7656 4.92188C42.7656 5.43286 42.866 5.91608 43.0113 6.37964L37.287 10.6718C36.506 10.1501 35.5699 9.84375 34.5625 9.84375C31.8486 9.84375 29.6406 12.0518 29.6406 14.7656C29.6406 15.5231 29.8269 16.2324 30.1341 16.8741L23.546 23.4622C22.9042 23.155 22.195 22.9688 21.4375 22.9688C20.1139 22.9688 18.9159 23.4998 18.0306 24.3526L13.1741 21.9246C13.1985 21.7267 13.2344 21.5323 13.2344 21.3281C13.2344 18.6143 11.0264 16.4062 8.3125 16.4062C5.59863 16.4062 3.39062 18.6143 3.39062 21.3281C3.39062 24.042 5.59863 26.25 8.3125 26.25Z" fill="#215098"/>
<path d="M54.3594 52.7188H52.6094V18.0469C52.6094 17.1403 51.8754 16.4062 50.9688 16.4062H44.4062C43.4996 16.4062 42.7656 17.1403 42.7656 18.0469V52.7188H39.4844V27.8906C39.4844 26.984 38.7504 26.25 37.8438 26.25H31.2812C30.3746 26.25 29.6406 26.984 29.6406 27.8906V52.7188H26.3594V41.0156C26.3594 40.109 25.6254 39.375 24.7188 39.375H18.1562C17.2496 39.375 16.5156 40.109 16.5156 41.0156V52.7188H13.2344V34.4531C13.2344 33.5465 12.5004 32.8125 11.5938 32.8125H5.03125C4.12463 32.8125 3.39062 33.5465 3.39062 34.4531V52.7188H1.64062C0.734009 52.7188 0 53.4528 0 54.3594C0 55.266 0.734009 56 1.64062 56H54.3594C55.266 56 56 55.266 56 54.3594C56 53.4528 55.266 52.7188 54.3594 52.7188Z" fill="#215098"/>
</svg>
