<svg   viewBox="0 0 19 11" xmlns="http://www.w3.org/2000/svg">
<path d="M18.0239 9.37718C18.0023 9.33061 17.9821 9.29198 17.9634 9.26103C17.6538 8.70339 17.0621 8.01893 16.1887 7.20744L16.1703 7.18886L16.161 7.17975L16.1517 7.17041H16.1423C15.7459 6.79254 15.4949 6.53847 15.3898 6.40839C15.1975 6.1606 15.1544 5.90978 15.2595 5.65565C15.3338 5.46364 15.6127 5.05814 16.0957 4.4386C16.3498 4.11026 16.551 3.84711 16.6996 3.64885C17.7713 2.22407 18.236 1.31362 18.0934 0.91714L18.0381 0.824487C18.0009 0.768706 17.9049 0.717677 17.7502 0.671139C17.5951 0.624699 17.397 0.617019 17.1553 0.647968L14.4794 0.666453C14.4361 0.651092 14.3742 0.652524 14.2935 0.671139C14.213 0.689754 14.1727 0.699095 14.1727 0.699095L14.1261 0.722364L14.0892 0.750319C14.0582 0.768804 14.0241 0.801316 13.9869 0.847788C13.9499 0.894099 13.919 0.948447 13.8942 1.01038C13.6029 1.7599 13.2717 2.45676 12.8999 3.10094C12.6707 3.48506 12.4602 3.81795 12.268 4.09981C12.076 4.38158 11.9149 4.58918 11.785 4.72225C11.6548 4.85545 11.5373 4.96217 11.4318 5.04278C11.3264 5.12342 11.246 5.15749 11.1903 5.14503C11.1345 5.13257 11.082 5.1202 11.0322 5.10783C10.9455 5.05205 10.8758 4.97619 10.8233 4.88019C10.7705 4.78418 10.735 4.66335 10.7164 4.51778C10.6979 4.37211 10.687 4.24682 10.6838 4.14147C10.6809 4.03626 10.6823 3.88743 10.6885 3.69542C10.695 3.50331 10.6979 3.37333 10.6979 3.30519C10.6979 3.06976 10.7025 2.81426 10.7117 2.53861C10.7211 2.26296 10.7286 2.04456 10.735 1.88366C10.7413 1.7226 10.7442 1.5522 10.7442 1.37256C10.7442 1.19292 10.7333 1.05203 10.7117 0.949781C10.6903 0.847658 10.6576 0.748529 10.6144 0.652426C10.5709 0.556422 10.5073 0.482156 10.4239 0.429435C10.3403 0.376779 10.2364 0.334992 10.1126 0.303945C9.78431 0.229647 9.36622 0.189455 8.85818 0.183207C7.70608 0.17084 6.96581 0.245236 6.6375 0.406296C6.50742 0.474345 6.38971 0.567324 6.28446 0.684938C6.17294 0.821265 6.15738 0.895661 6.23789 0.907897C6.60961 0.96358 6.87276 1.09678 7.02764 1.30737L7.08345 1.41897C7.12687 1.49948 7.17021 1.64202 7.2136 1.8464C7.25691 2.05078 7.28487 2.27686 7.29717 2.52452C7.32809 2.97679 7.32809 3.36393 7.29717 3.68598C7.26615 4.00817 7.23687 4.25899 7.20891 4.43863C7.18095 4.61827 7.13917 4.76384 7.08345 4.87531C7.02764 4.9868 6.99051 5.05495 6.97189 5.07968C6.95331 5.10442 6.93782 5.12 6.92552 5.12612C6.845 5.15697 6.76127 5.17269 6.6746 5.17269C6.58781 5.17269 6.48256 5.12928 6.3587 5.04252C6.23487 4.95575 6.10635 4.83658 5.97315 4.68479C5.83995 4.53297 5.68972 4.32082 5.52241 4.0483C5.35524 3.77577 5.18178 3.45369 5.00213 3.08203L4.8535 2.8125C4.76059 2.63911 4.63367 2.38663 4.47261 2.0553C4.31145 1.72384 4.16901 1.40322 4.04518 1.0935C3.99568 0.963417 3.92131 0.864386 3.82222 0.796239L3.77571 0.768283C3.74479 0.74355 3.69516 0.717287 3.62708 0.689299C3.5589 0.661343 3.48776 0.641296 3.41337 0.628962L0.86748 0.647447C0.607323 0.647447 0.430804 0.706384 0.337858 0.824096L0.30066 0.879779C0.282078 0.910793 0.272705 0.960325 0.272705 1.02851C0.272705 1.09665 0.291288 1.18029 0.328486 1.27932C0.700138 2.1528 1.1043 2.99521 1.54098 3.80666C1.97765 4.61811 2.35712 5.27176 2.67914 5.76701C3.00123 6.26262 3.32953 6.73038 3.66405 7.17005C3.99857 7.60988 4.22 7.89175 4.32834 8.01558C4.43681 8.13963 4.52201 8.23238 4.58394 8.29431L4.81627 8.51727C4.96493 8.66597 5.18324 8.84405 5.47129 9.05152C5.7594 9.25911 6.07836 9.46349 6.42834 9.66497C6.77838 9.86613 7.18561 10.0303 7.65024 10.1572C8.11481 10.2843 8.56697 10.3353 9.0068 10.3107H10.0754C10.2921 10.292 10.4563 10.2239 10.5678 10.1062L10.6048 10.0597C10.6297 10.0227 10.6529 9.96525 10.6744 9.88796C10.6962 9.81054 10.707 9.72524 10.707 9.63246C10.7006 9.36615 10.7209 9.12614 10.7672 8.91246C10.8135 8.69884 10.8663 8.53778 10.9254 8.42931C10.9844 8.32094 11.051 8.22949 11.1251 8.15535C11.1993 8.08105 11.2522 8.03605 11.2833 8.02055C11.3141 8.00497 11.3388 7.99439 11.3574 7.98804C11.506 7.93851 11.681 7.98648 11.8825 8.13218C12.0838 8.27775 12.2727 8.45749 12.4493 8.67111C12.6259 8.88492 12.838 9.12481 13.0857 9.39111C13.3336 9.65752 13.5504 9.85555 13.7361 9.98582L13.9219 10.0973C14.046 10.1717 14.207 10.2399 14.4053 10.3018C14.6032 10.3637 14.7766 10.3792 14.9255 10.3482L17.304 10.3111C17.5393 10.3111 17.7223 10.2722 17.8522 10.1949C17.9823 10.1175 18.0596 10.0322 18.0845 9.93938C18.1094 9.8465 18.1107 9.74112 18.0892 9.62331C18.0672 9.5058 18.0455 9.42362 18.0239 9.37718Z"/>
</svg>
