<svg   xmlns="http://www.w3.org/2000/svg">
<path d="M31.3165 17.3677C31.3051 13.4845 31.459 9.64695 32.1775 5.79797C32.6508 6.78445 33.1526 14.8017 32.9245 17.3848C32.3999 17.2023 31.8696 17.208 31.3165 17.3677Z" />
<path d="M32.7821 21.1702C32.3145 21.1645 31.8869 21.1645 31.4364 21.1588C31.4193 20.8337 31.4022 20.4688 31.3908 20.1039C31.368 19.374 31.3566 18.6441 31.3281 17.9142C31.3224 17.7603 31.3737 17.7032 31.5162 17.6633C31.9382 17.555 32.3545 17.555 32.765 17.6861C32.8334 17.7089 32.919 17.8002 32.919 17.8629C32.8791 18.9748 32.8277 20.0868 32.7821 21.1702Z" />
<path d="M31.6016 25.1858C31.7384 24.5301 31.5617 23.9427 31.3393 23.3497C31.2195 23.0247 31.1397 22.6711 31.1112 22.3233C31.0713 21.8101 31.3507 21.5136 31.8582 21.4509C32.0007 21.4338 32.149 21.4338 32.2972 21.4509C32.799 21.5079 33.0784 21.7759 33.0784 22.2834C33.0784 23.2585 32.7876 24.148 32.1832 24.9235C31.995 25.163 31.8696 25.2029 31.6016 25.1858Z" />
<path d="M16.4278 12.0895C16.9239 12.3689 17.3915 12.6312 17.8819 12.9107C16.6274 15.1402 15.3786 17.3527 14.1185 19.5936C13.6395 19.3256 13.1662 19.0576 12.6587 18.7782C13.9132 16.5486 15.162 14.3305 16.4278 12.0895Z" />
<path d="M16.5815 11.7976C16.8324 11.3585 17.0605 10.9308 17.3171 10.5203C17.4882 10.2409 17.5965 10.2295 17.8816 10.3891C18.1382 10.5317 18.3834 10.6913 18.6457 10.8111C18.8396 10.9023 18.8738 11.0392 18.8054 11.1988C18.6971 11.444 18.5659 11.6778 18.4405 11.9173C18.3207 12.1397 18.1953 12.3621 18.0527 12.613C17.568 12.3507 17.0947 12.0827 16.5815 11.7976Z" />
<path d="M14.0158 19.7577C13.5083 20.2766 13.0236 20.767 12.5389 21.2574C12.3735 21.1661 12.2253 21.0806 12.0542 20.9837C12.2196 20.3336 12.3849 19.6551 12.5674 18.948C13.0464 19.216 13.514 19.4783 14.0158 19.7577Z" />
<path d="M9.6652 14.9735C9.57396 15.0818 9.49984 15.1673 9.4086 15.2757C9.74503 15.5608 10.0758 15.8402 10.4236 16.1367C10.1955 16.4104 9.97312 16.6727 9.73363 16.9578C9.152 16.4674 8.57608 15.9828 7.98876 15.4924C7.89752 15.6064 7.81769 15.6976 7.73216 15.8003C8.31378 16.2907 8.884 16.7697 9.47132 17.2714C9.24324 17.5452 9.02085 17.8075 8.78136 18.0926C8.44493 17.8132 8.11991 17.5337 7.76637 17.2372C7.68084 17.3399 7.60101 17.4368 7.50977 17.5394C7.85191 17.8246 8.17693 18.104 8.52476 18.3948C8.29667 18.6628 8.07429 18.9251 7.8348 19.2159C7.25888 18.7312 6.68296 18.2465 6.08993 17.7504C6.0044 17.8531 5.93027 17.9443 5.83333 18.0583C6.40925 18.543 6.97947 19.0277 7.5725 19.5295C7.34441 19.7975 7.12203 20.0655 6.88253 20.3506C6.54611 20.0655 6.21538 19.7918 5.86755 19.4953C5.78201 19.5922 5.70789 19.6835 5.61095 19.8032C5.94738 20.0883 6.2724 20.362 6.62594 20.6642C6.39215 20.9379 6.16976 21.206 5.93027 21.4854C5.34865 20.995 4.77843 20.516 4.1911 20.0199C4.10557 20.1168 4.03144 20.2081 3.93451 20.3221C4.51613 20.8125 5.08635 21.2972 5.67367 21.7933C5.43988 22.067 5.2175 22.335 4.98371 22.6144C4.64158 22.3293 4.30515 22.0499 3.96872 21.7648C3.87748 21.8731 3.79765 21.9643 3.71212 22.067C4.05425 22.3578 4.37928 22.6372 4.72141 22.928C4.48762 23.2017 4.27093 23.464 4.03144 23.7491C3.44412 23.2587 2.8739 22.7741 2.28657 22.2837C2.19534 22.392 2.11551 22.4832 2.02998 22.5916C2.6116 23.082 3.18182 23.5667 3.76914 24.0627C3.45552 24.4391 3.1476 24.7983 2.82828 25.1747C1.88172 24.3764 0.952265 23.5895 0 22.7912C3.89459 18.1724 7.77778 13.5764 11.6781 8.95197C12.6189 9.74457 13.5541 10.5315 14.5064 11.3355C14.1984 11.7061 13.8905 12.0654 13.5655 12.4474C12.9896 11.9627 12.4194 11.478 11.8263 10.9819C11.7408 11.0846 11.661 11.1758 11.5697 11.2842C12.1571 11.7802 12.7273 12.2592 13.3089 12.7553C13.0808 13.029 12.8584 13.2913 12.6132 13.5764C12.2711 13.2913 11.9347 13.0062 11.5982 12.7211C11.507 12.8294 11.4329 12.9207 11.3416 13.0233C11.6838 13.3141 12.0088 13.5935 12.3509 13.8844C12.1171 14.1581 11.8948 14.4204 11.661 14.7055C11.0793 14.2151 10.5091 13.7361 9.9218 13.24C9.83626 13.3426 9.75644 13.4339 9.6595 13.5422C10.2354 14.0326 10.8056 14.5116 11.3987 15.0134C11.1706 15.2871 10.9425 15.5551 10.7087 15.8345C10.3438 15.5437 10.0187 15.27 9.6652 14.9735Z" />
<path d="M3.5127 0.00012207V17.7282L5.31459 15.55V1.80201H28.1518V33.1982H5.31459V23.3163L5.0865 23.5958L4.12853 24.7533L3.5127 25.4946V35.0001H29.9537V0.00012207H3.5127Z" />
<path d="M8.85557 19.0403L7.8976 20.1978L7.58398 20.5742V26.6584H25.8823V3.59308H7.58398V12.8021L9.38587 10.6239V5.39497H24.0804V24.8565H9.38587V18.3959L8.85557 19.0403Z" />
<path d="M16.7587 27.9644C15.6353 27.9644 14.7173 28.8824 14.7173 30.0057C14.7173 31.1291 15.6353 32.0471 16.7587 32.0471C17.882 32.0471 18.8 31.1291 18.8 30.0057C18.8 28.8824 17.882 27.9644 16.7587 27.9644ZM16.7587 31.1291C16.1428 31.1291 15.6353 30.6273 15.6353 30.0057C15.6353 29.3899 16.1371 28.8824 16.7587 28.8824C17.3802 28.8824 17.882 29.3842 17.882 30.0057C17.8763 30.6273 17.3745 31.1291 16.7587 31.1291Z" />
<path d="M21.4801 28.8298H20.562V30.8997H21.4801V28.8298Z" />
<path d="M24.1656 28.8298H23.2476V30.8997H24.1656V28.8298Z" />
<path d="M12.9493 28.83H12.0312V30.8998H12.9493V28.83Z" />
<path d="M10.2638 28.8298H9.3457V30.8997H10.2638V28.8298Z" />
</svg>
