<svg  xmlns="http://www.w3.org/2000/svg">
<path d="M31.7951 7.39542C31.3686 6.79595 30.9017 6.21953 30.3944 5.66617C30.2273 5.48172 30.0486 5.30303 29.8757 5.12434C26.5901 1.83877 22.2266 0.0230567 17.5807 0C17.5519 0 17.5288 0 17.5 0C17.4712 0 17.4481 0 17.4193 0C12.7792 0.0230567 8.41568 1.83877 5.12434 5.12434C4.94565 5.30303 4.77273 5.48172 4.60557 5.66617C4.09832 6.21377 3.63142 6.79595 3.20487 7.39542C1.12401 10.3294 0 13.8282 0 17.5V17.5058C0 21.166 1.11825 24.6476 3.18758 27.5758C3.61413 28.1752 4.07526 28.7574 4.58251 29.305C4.7612 29.501 4.93989 29.6912 5.13011 29.8757C8.41568 33.1612 12.7791 34.9827 17.4251 35C17.4539 35 17.4769 35 17.5058 35C17.5346 35 17.5576 35 17.5865 35C22.2324 34.9827 26.5958 33.1612 29.8814 29.8757C29.9967 29.7604 30.112 29.6451 30.2215 29.524C29.6105 28.3827 29.0053 27.2472 28.3943 26.1059C27.3106 25.76 26.1347 25.4718 24.8897 25.247C25.2009 23.8463 25.4257 22.3592 25.5583 20.8144C25.5698 20.6703 25.5814 20.5262 25.5929 20.3763C25.5929 20.3706 25.5929 20.3706 25.5929 20.3648C25.5986 20.2726 25.6044 20.1803 25.6102 20.0939C25.6448 19.5982 25.6678 19.1024 25.6793 18.5952H29.1033H32.775C32.677 19.9613 32.4004 21.2813 31.968 22.5264C32.654 22.7915 33.3342 23.0509 34.0201 23.3103C34.6657 21.4657 35.0058 19.5059 35.0058 17.5C35.0058 13.8282 33.8818 10.3294 31.7951 7.39542ZM28.2386 6.5942C27.057 7.00346 25.737 7.33778 24.3132 7.5914C24.0769 6.84206 23.8175 6.13307 23.5293 5.47019C23.1028 4.49028 22.6359 3.63142 22.1229 2.90514C24.4458 3.63719 26.5382 4.91683 28.2386 6.5942ZM11.5168 16.4048C11.586 14.053 11.8684 11.9088 12.3007 10.0412C13.9608 10.2429 15.7131 10.3467 17.5058 10.3467C19.2984 10.3467 21.0507 10.2429 22.7108 10.0412C23.1431 11.9088 23.4256 14.0588 23.4947 16.4048H11.5168ZM23.489 18.5952C23.4198 20.9297 23.1431 23.0567 22.7166 24.9185C21.0507 24.7167 19.2984 24.6072 17.5 24.6072C15.7073 24.6072 13.9493 24.711 12.2892 24.9185C11.8626 23.0567 11.5802 20.9297 11.5168 18.5952H23.489ZM17.5 2.19038C19.1601 2.19038 20.9239 4.32889 22.1113 7.90843C20.6357 8.07559 19.0909 8.16206 17.5 8.16206C15.9149 8.16206 14.3643 8.07559 12.8887 7.90843C14.0761 4.32889 15.8457 2.19038 17.5 2.19038ZM12.8829 2.89937C12.3699 3.62566 11.903 4.48452 11.4764 5.46443C11.1882 6.13307 10.9289 6.84206 10.6925 7.58564C9.26877 7.33202 7.94878 6.99769 6.76713 6.58844C8.46756 4.9226 10.5542 3.63719 12.8829 2.89937ZM5.2281 8.35804C5.32032 8.39839 5.41831 8.43297 5.5163 8.46756C6.88818 8.98057 8.4445 9.40135 10.1276 9.70685C9.66074 11.7762 9.38982 14.0415 9.32065 16.399H5.89674H2.22497C2.44401 13.4017 3.52767 10.6349 5.2281 8.35804ZM5.20504 26.6131C3.51614 24.3421 2.44401 21.5868 2.23073 18.5952H5.9025H9.32642C9.38982 20.9354 9.66074 23.195 10.1219 25.247C8.43874 25.5583 6.88818 25.9733 5.5163 26.4863C5.40679 26.5324 5.30303 26.5728 5.20504 26.6131ZM6.73831 28.377C7.91996 27.962 9.25148 27.6276 10.681 27.374C10.9173 28.1349 11.1825 28.8612 11.4764 29.5356C11.903 30.5155 12.3699 31.3743 12.8829 32.1006C10.5427 31.357 8.4445 30.0659 6.73831 28.377ZM17.5 32.8154C15.8342 32.8154 14.0646 30.6596 12.8771 27.057C14.3528 26.8898 15.9091 26.8034 17.5 26.8034C19.0909 26.8034 20.6472 26.8898 22.1229 27.057C20.9412 30.6538 19.1658 32.8154 17.5 32.8154ZM28.2675 28.377C26.5613 30.0659 24.4631 31.357 22.1229 32.1006C22.6359 31.3743 23.1028 30.5155 23.5293 29.5356C23.8233 28.8554 24.0884 28.1349 24.3248 27.374C25.7543 27.6276 27.08 27.9677 28.2675 28.377ZM29.1033 16.4048H25.6793C25.6159 14.0473 25.3393 11.7762 24.8724 9.71262C26.5555 9.40135 28.1176 8.98633 29.4837 8.47332C29.5817 8.43874 29.6797 8.39839 29.7719 8.3638C31.4723 10.6406 32.556 13.4074 32.7693 16.4106L29.1033 16.4048Z" />
<path d="M35.6053 28.7748C35.4784 28.9247 35.3401 29.063 35.2191 29.2187C35.098 29.3685 35 29.3685 34.8559 29.2417C34.1469 28.6077 33.4264 27.9794 32.7117 27.3453C32.6425 27.2877 32.5733 27.23 32.4811 27.1493C32.1525 27.9736 31.8355 28.7691 31.5012 29.6106C30.112 27.0168 28.7459 24.4575 27.3452 21.8463C30.1178 22.9069 32.8269 23.9445 35.5764 24.9935C34.7925 25.4259 34.0432 25.8409 33.2535 26.2732C33.4552 26.4519 33.6282 26.6075 33.8011 26.7631C34.3948 27.2877 34.9885 27.8122 35.588 28.3368C35.7955 28.527 35.8012 28.5558 35.6053 28.7748Z" />
</svg>
