<svg width="221" height="39" viewBox="0 0 221 39" fill="none" xmlns="http://www.w3.org/2000/svg">
<path d="M9.97656 12.6426H15.1758C19.9453 12.6426 23.4831 13.4876 25.7891 15.1777C28.0951 16.8535 29.248 19.4674 29.248 23.0195C29.248 25.9271 28.1882 28.1543 26.0684 29.7012C23.9629 31.2337 20.9336 32 16.9805 32H0.265625V0.503906H26.7773V6.88477H9.97656V12.6426ZM9.97656 25.2324H14.9609C18.0117 25.2324 19.5371 24.1296 19.5371 21.9238C19.5371 19.9902 18.0117 19.0234 14.9609 19.0234H9.97656V25.2324Z" fill="url(#paint3_linear)"/>
<path d="M47.6258 0.503906H63.8035C67.327 0.503906 69.9624 1.3418 71.7098 3.01758C73.4715 4.69336 74.3523 7.07812 74.3523 10.1719C74.3523 13.3516 73.3927 15.8366 71.4734 17.627C69.5685 19.4173 66.6538 20.3125 62.7293 20.3125H57.4012V32H47.6258V0.503906ZM57.4012 13.9316H59.7859C61.6622 13.9316 62.9799 13.6094 63.7391 12.9648C64.4982 12.306 64.8777 11.4681 64.8777 10.4512C64.8777 9.46289 64.5483 8.625 63.8895 7.9375C63.2306 7.25 61.9917 6.90625 60.1727 6.90625H57.4012V13.9316Z" fill="url(#paint3_linear)"/>
<path d="M92.6441 0.503906H118.726V7.22852H102.398V12.2344H117.545V18.6582H102.398V24.8672H119.199V32H92.6441V0.503906Z" fill="url(#paint3_linear)"/>
<path d="M137.705 0.503906H147.438V11.5254H158.073V0.503906H167.848V32H158.073V19.2598H147.438V32H137.705V0.503906Z" fill="url(#paint3_linear)"/>
<path d="M220.558 38.8535H212.716V32H192.607V38.8535H184.786V24.7383H188.03C189.849 19.6536 190.759 13.9173 190.759 7.5293V0.503906H217.163V24.7383H220.558V38.8535ZM207.431 24.7383V8.23828H199.611V8.64648C199.611 13.0007 198.873 18.3646 197.398 24.7383H207.431Z" fill="url(#paint3_linear)"/>
<!-- <defs>
<linearGradient id="paint3_linear" x1="109.5" y1="-16" x2="109.5" y2="46" gradientUnits="userSpaceOnUse">
<stop stop-color="#7A7A7A"/>
<stop offset="1"/>
</linearGradient>
</defs> -->
</svg>
