<svg width="160" height="42" viewBox="0 0 160 42" fill="none" xmlns="http://www.w3.org/2000/svg">
<path d="M63.9497 36.4744C63.4468 36.1954 63.0836 35.8047 62.8043 35.3023C62.5249 34.8 62.3852 34.2419 62.3852 33.6279C62.3852 32.986 62.5249 32.4279 62.8043 31.9256C63.0836 31.4233 63.4748 31.0326 63.9497 30.7814C64.4526 30.5023 65.0113 30.3628 65.626 30.3628C66.1289 30.3628 66.6038 30.4744 67.0229 30.6698C67.4419 30.8651 67.7772 31.1721 68.0566 31.5349L67.6096 31.8698C67.3861 31.5628 67.1067 31.3116 66.7435 31.1442C66.4082 30.9767 66.0171 30.893 65.626 30.893C65.1231 30.893 64.6761 31.0047 64.285 31.2279C63.8938 31.4512 63.5865 31.7581 63.363 32.1767C63.1395 32.5954 63.0278 33.0698 63.0278 33.6C63.0278 34.1302 63.1395 34.6047 63.363 35.0233C63.5865 35.4419 63.8938 35.7488 64.285 35.9721C64.6761 36.1954 65.1231 36.307 65.626 36.307C66.045 36.307 66.4082 36.2233 66.7435 36.0558C67.0787 35.8884 67.3581 35.6651 67.6096 35.3302L68.0566 35.6651C67.8051 36.0558 67.4419 36.3349 67.0229 36.5302C66.6038 36.7256 66.1289 36.8372 65.626 36.8372C64.9834 36.893 64.4247 36.7535 63.9497 36.4744Z" fill="#514D48"/>
<path d="M70.99 31.0325C71.4091 30.7813 71.912 30.6697 72.5266 30.6697V31.2836H72.3869C71.6605 31.2836 71.1018 31.5069 70.7107 31.9534C70.3195 32.3999 70.096 33.0139 70.096 33.8232V37.172H69.4814V30.7534H70.0681V32.1487C70.2637 31.6464 70.571 31.2836 70.99 31.0325Z" fill="#514D48"/>
<path d="M79.5949 34.0464H74.0632C74.0911 34.5488 74.2029 34.9953 74.4543 35.386C74.7058 35.7767 75.0131 36.0836 75.4322 36.279C75.8512 36.5022 76.2982 36.586 76.8011 36.586C77.2202 36.586 77.6113 36.5022 77.9745 36.3627C78.3377 36.2232 78.6171 35.9999 78.8685 35.6929L79.2317 36.1115C78.9523 36.4464 78.5891 36.6976 78.1701 36.8929C77.751 37.0604 77.304 37.172 76.8011 37.172C76.1585 37.172 75.5998 37.0325 75.0969 36.7534C74.594 36.4743 74.2029 36.0836 73.9235 35.6092C73.6441 35.1069 73.5045 34.5488 73.5045 33.9348C73.5045 33.3208 73.6441 32.7627 73.8956 32.2604C74.175 31.7581 74.5382 31.3674 74.9852 31.0883C75.4601 30.8092 75.9909 30.6697 76.5497 30.6697C77.1364 30.6697 77.6672 30.8092 78.1142 31.0883C78.5891 31.3674 78.9523 31.7581 79.2038 32.2325C79.4831 32.7348 79.5949 33.2929 79.5949 33.9069V34.0464ZM75.3204 31.5069C74.9572 31.7022 74.6778 31.9813 74.4543 32.3441C74.2308 32.7069 74.1191 33.1255 74.0912 33.572H79.0082C78.9803 33.1255 78.8685 32.7069 78.645 32.3441C78.4215 31.9813 78.1421 31.7022 77.7789 31.5069C77.4157 31.3115 77.0246 31.1999 76.5497 31.1999C76.0747 31.1999 75.6836 31.2836 75.3204 31.5069Z" fill="#514D48"/>
<path d="M85.5736 31.2558C85.9926 31.6744 86.2161 32.2605 86.2161 33.0419V37.1163H85.6294V35.9721C85.4339 36.3628 85.1266 36.6419 84.7354 36.8372C84.3443 37.0326 83.8694 37.1442 83.3106 37.1442C82.5842 37.1442 82.0255 36.9768 81.6064 36.6419C81.1874 36.307 80.9918 35.8605 80.9918 35.3023C80.9918 34.7721 81.1874 34.3256 81.5505 34.0186C81.9417 33.6837 82.5284 33.5163 83.3665 33.5163H85.5736V32.9861C85.5736 32.4 85.4059 31.9256 85.0986 31.6186C84.7634 31.3116 84.2884 31.1442 83.6738 31.1442C83.2547 31.1442 82.8357 31.2279 82.4446 31.3675C82.0534 31.507 81.7182 31.7023 81.4667 31.9535L81.1594 31.507C81.4667 31.2279 81.8579 31.0047 82.3049 30.8372C82.7519 30.6698 83.2268 30.5861 83.7297 30.5861C84.5399 30.6419 85.1266 30.8651 85.5736 31.2558ZM84.7354 36.307C85.0986 36.0558 85.378 35.693 85.5736 35.2465V34.0465H83.3944C82.7519 34.0465 82.3049 34.1581 82.0255 34.3814C81.7461 34.6047 81.6064 34.9395 81.6064 35.3302C81.6064 35.7488 81.774 36.0837 82.0814 36.307C82.3887 36.5581 82.8357 36.6698 83.3944 36.6698C83.9252 36.6698 84.3722 36.5302 84.7354 36.307Z" fill="#514D48"/>
<path d="M91.692 36.7256C91.5244 36.8652 91.3288 36.9768 91.1053 37.0605C90.8818 37.1442 90.6303 37.1721 90.3789 37.1721C89.8201 37.1721 89.4011 37.0047 89.0938 36.6977C88.7864 36.3907 88.6468 35.9721 88.6468 35.414V31.228H87.4454V30.6977H88.6188V29.3024H89.2335V30.6977H91.2729V31.228H89.2335V35.3582C89.2335 35.7768 89.3452 36.0838 89.5408 36.307C89.7363 36.5303 90.0437 36.6419 90.4348 36.6419C90.8259 36.6419 91.1612 36.5303 91.4405 36.2791L91.692 36.7256Z" fill="#514D48"/>
<path d="M93.1168 28.9954C93.0051 28.9116 92.9771 28.7721 92.9771 28.6326C92.9771 28.493 93.033 28.3814 93.1168 28.2698C93.2286 28.1582 93.3403 28.1302 93.48 28.1302C93.6197 28.1302 93.7314 28.1861 93.8432 28.2698C93.9549 28.3535 93.9829 28.493 93.9829 28.6326C93.9829 28.7721 93.927 28.8837 93.8432 28.9954C93.7314 29.107 93.6197 29.1349 93.48 29.1349C93.3124 29.1349 93.2006 29.107 93.1168 28.9954ZM93.1448 30.6977H93.7594V37.1163H93.1448V30.6977Z" fill="#514D48"/>
<path d="M101.778 30.6976L98.872 37.1162H98.2574L95.3518 30.6976H95.9944L98.5647 36.4465L101.135 30.6976H101.778Z" fill="#514D48"/>
<path d="M108.343 34.0464H102.811C102.839 34.5488 102.951 34.9953 103.202 35.386C103.454 35.7767 103.761 36.0836 104.18 36.279C104.599 36.5022 105.046 36.586 105.549 36.586C105.968 36.586 106.359 36.5022 106.723 36.3627C107.086 36.2232 107.365 35.9999 107.617 35.6929L107.98 36.1115C107.7 36.4464 107.337 36.6976 106.918 36.8929C106.499 37.0604 106.052 37.172 105.549 37.172C104.907 37.172 104.348 37.0325 103.845 36.7534C103.342 36.4743 102.951 36.0836 102.672 35.6092C102.392 35.1069 102.252 34.5488 102.252 33.9348C102.252 33.3208 102.392 32.7627 102.644 32.2604C102.923 31.7581 103.286 31.3674 103.733 31.0883C104.208 30.8092 104.739 30.6697 105.298 30.6697C105.884 30.6697 106.415 30.8092 106.862 31.0883C107.337 31.3674 107.7 31.7581 107.952 32.2325C108.231 32.7348 108.343 33.2929 108.343 33.9069V34.0464ZM104.068 31.5069C103.705 31.7022 103.426 31.9813 103.202 32.3441C102.979 32.7069 102.867 33.1255 102.839 33.572H107.756C107.728 33.1255 107.617 32.7069 107.393 32.3441C107.17 31.9813 106.89 31.7022 106.527 31.5069C106.164 31.3115 105.773 31.1999 105.298 31.1999C104.851 31.1999 104.432 31.2836 104.068 31.5069Z" fill="#514D48"/>
<path d="M113.567 36.9488C113.092 36.7814 112.729 36.586 112.478 36.3628L112.757 35.8604C113.009 36.0837 113.372 36.279 113.763 36.4186C114.182 36.5581 114.601 36.6418 115.048 36.6418C115.691 36.6418 116.166 36.5302 116.473 36.3348C116.78 36.1116 116.948 35.8325 116.948 35.4418C116.948 35.1627 116.864 34.9674 116.696 34.8C116.529 34.6325 116.333 34.5209 116.082 34.4651C115.83 34.3814 115.495 34.3255 115.048 34.2418C114.545 34.1581 114.126 34.0465 113.819 33.9348C113.511 33.8232 113.232 33.6558 113.009 33.4325C112.785 33.1814 112.673 32.8744 112.673 32.4558C112.673 31.9534 112.897 31.5348 113.316 31.2C113.735 30.8651 114.35 30.6976 115.132 30.6976C115.551 30.6976 115.942 30.7534 116.361 30.8651C116.752 30.9767 117.087 31.1441 117.339 31.3116L117.06 31.8139C116.808 31.6186 116.501 31.479 116.166 31.3953C115.83 31.2837 115.495 31.2558 115.132 31.2558C114.545 31.2558 114.07 31.3674 113.791 31.5907C113.484 31.8139 113.344 32.093 113.344 32.4558C113.344 32.7348 113.428 32.9581 113.595 33.1255C113.763 33.293 113.986 33.4046 114.238 33.4883C114.489 33.5721 114.852 33.6558 115.299 33.7395C115.802 33.8232 116.193 33.9348 116.501 34.0186C116.808 34.1302 117.06 34.2976 117.283 34.5209C117.507 34.7441 117.59 35.079 117.59 35.4697C117.59 36 117.367 36.4186 116.92 36.7534C116.473 37.0604 115.858 37.2279 115.048 37.2279C114.545 37.1721 114.042 37.0883 113.567 36.9488Z" fill="#514D48"/>
<path d="M122.982 36.7256C122.815 36.8652 122.619 36.9768 122.396 37.0605C122.172 37.1442 121.921 37.1721 121.669 37.1721C121.111 37.1721 120.691 37.0047 120.384 36.6977C120.077 36.3907 119.937 35.9721 119.937 35.414V31.228H118.736V30.6977H119.909V29.3024H120.524V30.6977H122.563V31.228H120.524V35.3582C120.524 35.7768 120.636 36.0838 120.831 36.307C121.027 36.5303 121.334 36.6419 121.725 36.6419C122.116 36.6419 122.452 36.5303 122.731 36.2791L122.982 36.7256Z" fill="#514D48"/>
<path d="M130.33 30.6976V37.1162H129.743V35.7488C129.52 36.1953 129.213 36.5581 128.793 36.8093C128.374 37.0604 127.871 37.172 127.313 37.172C126.475 37.172 125.832 36.9488 125.357 36.4744C124.882 36 124.631 35.3302 124.631 34.4651V30.6976H125.245V34.4093C125.245 35.1348 125.441 35.693 125.804 36.0558C126.167 36.4465 126.698 36.6139 127.369 36.6139C128.095 36.6139 128.654 36.3907 129.073 35.9441C129.492 35.4976 129.715 34.8837 129.715 34.1302V30.6976H130.33Z" fill="#514D48"/>
<path d="M138.404 27.9906V37.1162H137.789V35.6092C137.538 36.1115 137.175 36.5022 136.728 36.7534C136.281 37.0325 135.75 37.172 135.163 37.172C134.577 37.172 134.018 37.0325 133.543 36.7534C133.068 36.4743 132.677 36.0836 132.397 35.6092C132.118 35.1069 131.978 34.5487 131.978 33.9348C131.978 33.2929 132.118 32.7348 132.397 32.2325C132.677 31.7301 133.04 31.3394 133.543 31.0883C134.046 30.8371 134.577 30.6697 135.163 30.6697C135.75 30.6697 136.253 30.8092 136.7 31.0883C137.147 31.3673 137.51 31.7301 137.789 32.2325V28.0464H138.404V27.9906ZM136.532 36.279C136.923 36.0557 137.231 35.7208 137.454 35.3301C137.678 34.9115 137.789 34.465 137.789 33.9348C137.789 33.4046 137.678 32.9301 137.454 32.5394C137.231 32.1208 136.923 31.8139 136.532 31.5906C136.141 31.3673 135.694 31.2557 135.219 31.2557C134.716 31.2557 134.297 31.3673 133.906 31.5906C133.515 31.8139 133.208 32.1487 132.984 32.5394C132.761 32.958 132.649 33.4046 132.649 33.9348C132.649 34.465 132.761 34.9394 132.984 35.3301C133.208 35.7487 133.515 36.0557 133.906 36.279C134.297 36.5022 134.744 36.6139 135.219 36.6139C135.694 36.6139 136.141 36.5022 136.532 36.279Z" fill="#514D48"/>
<path d="M140.695 28.9954C140.583 28.9116 140.555 28.7721 140.555 28.6326C140.555 28.493 140.611 28.3814 140.695 28.2698C140.807 28.1582 140.918 28.1302 141.058 28.1302C141.198 28.1302 141.31 28.1861 141.421 28.2698C141.533 28.3535 141.561 28.493 141.561 28.6326C141.561 28.7721 141.505 28.8837 141.421 28.9954C141.31 29.107 141.198 29.1349 141.058 29.1349C140.918 29.1349 140.807 29.107 140.695 28.9954ZM140.751 30.6977H141.365V37.1163H140.751V30.6977Z" fill="#514D48"/>
<path d="M144.83 36.7535C144.355 36.4744 143.964 36.0837 143.684 35.5814C143.405 35.0791 143.265 34.5209 143.265 33.907C143.265 33.293 143.405 32.7349 143.684 32.2325C143.964 31.7302 144.355 31.3395 144.83 31.0605C145.305 30.7814 145.863 30.6418 146.478 30.6418C147.093 30.6418 147.624 30.7814 148.126 31.0605C148.601 31.3395 148.992 31.7302 149.272 32.2325C149.551 32.7349 149.691 33.293 149.691 33.907C149.691 34.5209 149.551 35.0791 149.272 35.5814C148.992 36.0837 148.601 36.4744 148.126 36.7535C147.651 37.0325 147.093 37.1721 146.478 37.1721C145.863 37.1721 145.333 37.0325 144.83 36.7535ZM147.791 36.2791C148.182 36.0558 148.49 35.7209 148.713 35.3302C148.937 34.9116 149.048 34.4651 149.048 33.9349C149.048 33.4046 148.937 32.9302 148.713 32.5395C148.49 32.1209 148.182 31.8139 147.791 31.5907C147.4 31.3674 146.953 31.2558 146.478 31.2558C145.975 31.2558 145.556 31.3674 145.165 31.5907C144.774 31.8139 144.467 32.1488 144.243 32.5395C144.02 32.9581 143.908 33.4046 143.908 33.9349C143.908 34.4651 144.02 34.9395 144.243 35.3302C144.467 35.7488 144.774 36.0558 145.165 36.2791C145.556 36.5023 146.003 36.6139 146.478 36.6139C146.981 36.6139 147.4 36.5023 147.791 36.2791Z" fill="#514D48"/>
<path d="M41.0127 8.56744L40.6775 8.14884L37.9955 10.8279L38.2469 11.1628C40.8731 14.5395 42.3538 18.7535 42.3538 23.0233C42.3538 28.2419 40.2025 33.2651 36.4589 36.893L34.1121 34.5488C37.2411 31.5349 39.0292 27.3767 39.0292 23.0233C39.0292 19.6186 37.9675 16.3814 35.956 13.6465C35.3134 12.7814 34.587 11.9442 33.7768 11.2186C30.8434 8.56744 27.0159 7.08837 23.0767 7.08837C20.2549 7.08837 17.4891 7.81395 15.0864 9.23721L12.6838 6.83721C15.7849 4.82791 19.3889 3.79535 23.1046 3.79535C23.8868 3.79535 24.6691 3.85116 25.4514 3.93488C29.3068 4.43721 33.0225 6.11163 35.956 8.67907L36.2912 8.95814L38.9453 6.30698L38.5822 5.97209C38.3866 5.80465 38.1631 5.6093 37.9675 5.41395L37.6043 5.10698C36.1795 3.96279 34.587 2.95814 32.9108 2.17674C32.7711 2.12093 32.6314 2.06512 32.5196 1.9814L32.352 1.95349C32.2403 1.89767 32.1285 1.86977 32.0447 1.81395L31.8212 1.73023C31.7653 1.70233 31.6815 1.67442 31.6256 1.64651C31.5418 1.6186 31.4301 1.56279 31.3463 1.53488L31.1786 1.47907C31.0669 1.42326 30.9551 1.39535 30.8154 1.33953L30.7316 1.31163C30.5919 1.25581 30.4522 1.2 30.2846 1.17209C28.3569 0.530233 26.3733 0.167442 24.3897 0.055814C23.9427 0 23.4957 0 23.0487 0C18.2713 0 13.494 1.53488 9.61062 4.32558L9.24742 4.60465C9.02392 4.77209 8.80042 4.93954 8.57692 5.10698L8.15785 5.44186C7.85053 5.72093 7.57115 5.97209 7.34765 6.22326L7.04033 6.55814L14.7791 14.2884L15.1144 13.9814C15.1144 13.9814 16.4554 12.8093 17.3215 12.307L17.4611 12.2233C19.1933 11.3302 21.0931 10.8558 23.0767 10.8558C26.066 10.8558 28.9157 11.9442 31.1507 13.9256C31.905 14.5954 32.6035 15.3767 33.1622 16.214C34.5312 18.2233 35.2575 20.5954 35.2575 23.0233C35.2575 29.7488 29.7817 35.1907 23.0767 35.1907C16.3716 35.1907 10.8958 29.7209 10.8958 23.0233C10.8958 20.5954 11.6221 18.2512 12.9632 16.2419L13.1867 15.907L10.9516 13.6744L10.4208 13.2837L10.1414 13.6744C8.15785 16.4093 7.12415 19.6465 7.12415 23.0233C7.12415 27.3767 8.91217 31.5349 12.0412 34.5488L9.69443 36.893C5.95076 33.2651 3.79955 28.2419 3.79955 23.0233C3.79955 18.7535 5.25231 14.5395 7.87847 11.1907L8.10197 10.8837L5.41994 8.20465L5.08469 8.62326C1.81596 12.6698 0 17.8047 0 23.0512C0 30.0279 3.12904 36.5581 8.57692 40.9674L9.91793 42L15.0864 36.8372C17.517 38.2326 20.2549 38.986 23.0767 38.986C25.8984 38.986 28.6363 38.2326 31.0669 36.8372L35.062 40.8279L36.2633 42L37.6043 40.9674C43.0522 36.5581 46.1812 30.0279 46.1812 23.0512C46.1254 17.7767 44.3094 12.6419 41.0127 8.56744Z" fill="#EB5A0F"/>
<path d="M24.9485 15.5442H21.1769V30.5581H24.9485V15.5442Z" fill="#EB5A0F"/>
<path d="M59.7032 9.7396H53.8362V6.97681H68.8388V9.7396H62.9719V24.6419H59.6752V9.7396H59.7032Z" fill="#514D48"/>
<path d="M71.8282 6.94873H75.1248V24.6138H71.8282V6.94873Z" fill="#514D48"/>
<path d="M105.605 6.94873L99.7381 24.6138H96.2459L91.8876 11.5255L87.4454 24.6138H83.9253L78.0583 6.94873H81.4667L85.853 20.372L90.4348 6.94873H93.48L97.9501 20.4557L102.476 6.94873H105.605Z" fill="#514D48"/>
<path d="M110.997 23.6929C109.544 22.9115 108.399 21.8232 107.589 20.4278C106.75 19.0325 106.359 17.4976 106.359 15.7674C106.359 14.0371 106.778 12.5022 107.589 11.1069C108.427 9.71154 109.544 8.62317 110.997 7.84177C112.45 7.06038 114.07 6.66968 115.886 6.66968C117.702 6.66968 119.322 7.06038 120.775 7.84177C122.228 8.62317 123.373 9.71154 124.184 11.079C125.022 12.4464 125.413 14.0092 125.413 15.7394C125.413 17.4697 124.994 19.0325 124.184 20.3999C123.346 21.7674 122.228 22.8557 120.775 23.6371C119.322 24.4185 117.702 24.8092 115.886 24.8092C114.07 24.865 112.45 24.4743 110.997 23.6929ZM119.071 21.2092C120.021 20.679 120.747 19.9255 121.306 18.9767C121.837 18.0278 122.116 16.9674 122.116 15.7953C122.116 14.6232 121.837 13.5627 121.306 12.6139C120.775 11.665 120.021 10.9115 119.071 10.3813C118.121 9.85107 117.06 9.59991 115.886 9.59991C114.713 9.59991 113.651 9.85107 112.701 10.3813C111.751 10.9115 111.025 11.665 110.466 12.6139C109.935 13.5627 109.656 14.6232 109.656 15.7953C109.656 16.9674 109.935 18.0278 110.466 18.9767C110.997 19.9255 111.751 20.679 112.701 21.2092C113.651 21.7394 114.713 21.9906 115.886 21.9906C117.06 21.9906 118.121 21.7394 119.071 21.2092Z" fill="#514D48"/>
<path d="M140.22 24.6139L136.616 19.4511C136.476 19.479 136.225 19.479 135.946 19.479H131.95V24.6418H128.654V6.94873H135.918C137.454 6.94873 138.795 7.19989 139.913 7.70222C141.058 8.20455 141.924 8.93013 142.539 9.87897C143.154 10.8278 143.461 11.9441 143.461 13.2278C143.461 14.5673 143.126 15.7115 142.483 16.6604C141.84 17.6092 140.891 18.3348 139.689 18.8092L143.768 24.6139H140.22ZM139.047 10.6325C138.292 10.0185 137.231 9.71152 135.778 9.71152H131.95V16.7441H135.778C137.203 16.7441 138.292 16.4371 139.047 15.8232C139.801 15.2092 140.164 14.3441 140.164 13.1999C140.164 12.1115 139.773 11.2464 139.047 10.6325Z" fill="#514D48"/>
<path d="M148.909 24.3069C147.624 23.9162 146.618 23.4139 145.891 22.7721L147.037 20.2325C147.763 20.8186 148.657 21.2651 149.691 21.6279C150.753 21.9907 151.814 22.1581 152.876 22.1581C154.189 22.1581 155.167 21.9348 155.809 21.5162C156.452 21.0976 156.787 20.5395 156.787 19.8418C156.787 19.3395 156.62 18.9209 156.256 18.586C155.893 18.2511 155.446 18 154.887 17.8046C154.329 17.6093 153.574 17.4139 152.624 17.1627C151.283 16.8558 150.194 16.5209 149.356 16.2139C148.518 15.9069 147.819 15.4046 147.204 14.7069C146.618 14.0372 146.31 13.1162 146.31 11.9441C146.31 10.9674 146.562 10.0744 147.093 9.29298C147.624 8.48368 148.434 7.86972 149.495 7.39531C150.557 6.92089 151.87 6.69763 153.435 6.69763C154.524 6.69763 155.586 6.83717 156.62 7.08833C157.653 7.3674 158.575 7.7581 159.329 8.26042L158.296 10.8C157.514 10.3534 156.703 9.99066 155.865 9.7674C155.027 9.54414 154.217 9.40461 153.407 9.40461C152.122 9.40461 151.144 9.62786 150.501 10.0744C149.859 10.5209 149.551 11.079 149.551 11.8046C149.551 12.3069 149.719 12.7255 150.082 13.0325C150.445 13.3395 150.892 13.6186 151.451 13.786C152.01 13.9814 152.764 14.1767 153.714 14.4279C155.027 14.7348 156.117 15.0418 156.955 15.3767C157.793 15.7116 158.519 16.2139 159.106 16.8837C159.693 17.5534 160 18.4744 160 19.6186C160 20.5953 159.749 21.4883 159.218 22.2697C158.687 23.0511 157.877 23.693 156.815 24.1674C155.726 24.6418 154.412 24.8651 152.876 24.8651C151.479 24.8651 150.166 24.6697 148.909 24.3069Z" fill="#514D48"/>
</svg>
