<svg width="160" height="42" viewBox="0 0 160 42" fill="none" xmlns="http://www.w3.org/2000/svg">
<path d="M63.9498 36.4744C63.4469 36.1954 63.0837 35.8047 62.8043 35.3023C62.5249 34.8 62.3853 34.2419 62.3853 33.6279C62.3853 32.986 62.5249 32.4279 62.8043 31.9256C63.0837 31.4233 63.4748 31.0326 63.9498 30.7814C64.4527 30.5023 65.0114 30.3628 65.626 30.3628C66.1289 30.3628 66.6039 30.4744 67.0229 30.6698C67.442 30.8651 67.7773 31.1721 68.0566 31.5349L67.6096 31.8698C67.3861 31.5628 67.1067 31.3116 66.7436 31.1442C66.4083 30.9767 66.0172 30.893 65.626 30.893C65.1232 30.893 64.6762 31.0047 64.285 31.2279C63.8939 31.4512 63.5866 31.7581 63.3631 32.1767C63.1396 32.5954 63.0278 33.0698 63.0278 33.6C63.0278 34.1302 63.1396 34.6047 63.3631 35.0233C63.5866 35.4419 63.8939 35.7488 64.285 35.9721C64.6762 36.1954 65.1232 36.307 65.626 36.307C66.0451 36.307 66.4083 36.2233 66.7436 36.0558C67.0788 35.8884 67.3582 35.6651 67.6096 35.3302L68.0566 35.6651C67.8052 36.0558 67.442 36.3349 67.0229 36.5302C66.6039 36.7256 66.1289 36.8372 65.626 36.8372C64.9835 36.893 64.4247 36.7535 63.9498 36.4744Z" fill="#32363C"/>
<path d="M70.9901 31.0327C71.4092 30.7815 71.912 30.6699 72.5267 30.6699V31.2839H72.387C71.6606 31.2839 71.1018 31.5071 70.7107 31.9536C70.3196 32.4002 70.0961 33.0141 70.0961 33.8234V37.1723H69.4814V30.7536H70.0681V32.149C70.2637 31.6467 70.571 31.2839 70.9901 31.0327Z" fill="#32363C"/>
<path d="M79.5948 34.0467H74.0632C74.0911 34.549 74.2028 34.9955 74.4543 35.3862C74.7057 35.7769 75.013 36.0839 75.4321 36.2792C75.8512 36.5025 76.2982 36.5862 76.8011 36.5862C77.2201 36.5862 77.6113 36.5025 77.9744 36.363C78.3376 36.2234 78.617 36.0002 78.8684 35.6932L79.2316 36.1118C78.9523 36.4467 78.5891 36.6978 78.17 36.8932C77.7509 37.0606 77.3039 37.1723 76.8011 37.1723C76.1585 37.1723 75.5997 37.0327 75.0968 36.7537C74.594 36.4746 74.2028 36.0839 73.9235 35.6095C73.6441 35.1071 73.5044 34.549 73.5044 33.935C73.5044 33.3211 73.6441 32.7629 73.8955 32.2606C74.1749 31.7583 74.5381 31.3676 74.9851 31.0885C75.46 30.8095 75.9909 30.6699 76.5496 30.6699C77.1363 30.6699 77.6671 30.8095 78.1141 31.0885C78.5891 31.3676 78.9523 31.7583 79.2037 32.2327C79.4831 32.735 79.5948 33.2932 79.5948 33.9071V34.0467ZM75.3204 31.5071C74.9572 31.7025 74.6778 31.9816 74.4543 32.3443C74.2308 32.7071 74.119 33.1257 74.0911 33.5723H79.0081C78.9802 33.1257 78.8685 32.7071 78.6449 32.3443C78.4214 31.9816 78.1421 31.7025 77.7789 31.5071C77.4157 31.3118 77.0246 31.2002 76.5496 31.2002C76.0747 31.2002 75.6835 31.2839 75.3204 31.5071Z" fill="#32363C"/>
<path d="M85.5735 31.2557C85.9925 31.6743 86.216 32.2604 86.216 33.0418V37.1162H85.6293V35.972C85.4338 36.3627 85.1265 36.6417 84.7353 36.8371C84.3442 37.0324 83.8693 37.1441 83.3105 37.1441C82.5841 37.1441 82.0254 36.9766 81.6063 36.6417C81.1873 36.3069 80.9917 35.8604 80.9917 35.3022C80.9917 34.772 81.1873 34.3255 81.5505 34.0185C81.9416 33.6836 82.5283 33.5162 83.3664 33.5162H85.5735V32.9859C85.5735 32.3999 85.4059 31.9255 85.0985 31.6185C84.7633 31.3115 84.2883 31.1441 83.6737 31.1441C83.2546 31.1441 82.8356 31.2278 82.4445 31.3673C82.0533 31.5069 81.7181 31.7022 81.4666 31.9534L81.1593 31.5069C81.4666 31.2278 81.8578 31.0045 82.3048 30.8371C82.7518 30.6697 83.2267 30.5859 83.7296 30.5859C84.5398 30.6418 85.1265 30.865 85.5735 31.2557ZM84.7353 36.3069C85.0985 36.0557 85.3779 35.6929 85.5735 35.2464V34.0464H83.3943C82.7518 34.0464 82.3048 34.158 82.0254 34.3813C81.746 34.6045 81.6063 34.9394 81.6063 35.3301C81.6063 35.7487 81.774 36.0836 82.0813 36.3069C82.3886 36.558 82.8356 36.6697 83.3943 36.6697C83.9252 36.6697 84.3722 36.5301 84.7353 36.3069Z" fill="#32363C"/>
<path d="M91.6919 36.7255C91.5242 36.865 91.3287 36.9767 91.1052 37.0604C90.8817 37.1441 90.6302 37.172 90.3788 37.172C89.82 37.172 89.401 37.0046 89.0936 36.6976C88.7863 36.3906 88.6466 35.972 88.6466 35.4139V31.2278H87.4453V30.6976H88.6187V29.3022H89.2333V30.6976H91.2728V31.2278H89.2333V35.3581C89.2333 35.7767 89.3451 36.0836 89.5406 36.3069C89.7362 36.5302 90.0435 36.6418 90.4347 36.6418C90.8258 36.6418 91.161 36.5302 91.4404 36.279L91.6919 36.7255Z" fill="#32363C"/>
<path d="M93.1167 28.9955C93.005 28.9118 92.9771 28.7722 92.9771 28.6327C92.9771 28.4932 93.0329 28.3815 93.1167 28.2699C93.2285 28.1583 93.3402 28.1304 93.4799 28.1304C93.6196 28.1304 93.7314 28.1862 93.8431 28.2699C93.9549 28.3536 93.9828 28.4932 93.9828 28.6327C93.9828 28.7722 93.9269 28.8839 93.8431 28.9955C93.7314 29.1071 93.6196 29.135 93.4799 29.135C93.3123 29.135 93.2006 29.1071 93.1167 28.9955ZM93.1447 30.6978H93.7593V37.1164H93.1447V30.6978Z" fill="#32363C"/>
<path d="M101.777 30.6978L98.872 37.1164H98.2573L95.3518 30.6978H95.9944L98.5646 36.4466L101.135 30.6978H101.777Z" fill="#32363C"/>
<path d="M108.343 34.0467H102.811C102.839 34.549 102.951 34.9955 103.202 35.3862C103.454 35.7769 103.761 36.0839 104.18 36.2792C104.599 36.5025 105.046 36.5862 105.549 36.5862C105.968 36.5862 106.359 36.5025 106.722 36.363C107.086 36.2234 107.365 36.0002 107.617 35.6932L107.98 36.1118C107.7 36.4467 107.337 36.6978 106.918 36.8932C106.499 37.0606 106.052 37.1723 105.549 37.1723C104.907 37.1723 104.348 37.0327 103.845 36.7537C103.342 36.4746 102.951 36.0839 102.672 35.6095C102.392 35.1071 102.252 34.549 102.252 33.935C102.252 33.3211 102.392 32.7629 102.644 32.2606C102.923 31.7583 103.286 31.3676 103.733 31.0885C104.208 30.8095 104.739 30.6699 105.298 30.6699C105.884 30.6699 106.415 30.8095 106.862 31.0885C107.337 31.3676 107.7 31.7583 107.952 32.2327C108.231 32.735 108.343 33.2932 108.343 33.9071V34.0467ZM104.068 31.5071C103.705 31.7025 103.426 31.9816 103.202 32.3443C102.979 32.7071 102.867 33.1257 102.839 33.5723H107.756C107.728 33.1257 107.617 32.7071 107.393 32.3443C107.17 31.9816 106.89 31.7025 106.527 31.5071C106.164 31.3118 105.773 31.2002 105.298 31.2002C104.851 31.2002 104.432 31.2839 104.068 31.5071Z" fill="#32363C"/>
<path d="M113.567 36.9489C113.092 36.7815 112.729 36.5861 112.478 36.3629L112.757 35.8605C113.009 36.0838 113.372 36.2792 113.763 36.4187C114.182 36.5582 114.601 36.6419 115.048 36.6419C115.691 36.6419 116.166 36.5303 116.473 36.335C116.78 36.1117 116.948 35.8326 116.948 35.4419C116.948 35.1629 116.864 34.9675 116.696 34.8001C116.529 34.6326 116.333 34.521 116.082 34.4652C115.83 34.3815 115.495 34.3257 115.048 34.2419C114.545 34.1582 114.126 34.0466 113.819 33.935C113.511 33.8233 113.232 33.6559 113.009 33.4326C112.785 33.1815 112.673 32.8745 112.673 32.4559C112.673 31.9536 112.897 31.535 113.316 31.2001C113.735 30.8652 114.35 30.6978 115.132 30.6978C115.551 30.6978 115.942 30.7536 116.361 30.8652C116.752 30.9768 117.087 31.1443 117.339 31.3117L117.06 31.814C116.808 31.6187 116.501 31.4791 116.166 31.3954C115.83 31.2838 115.495 31.2559 115.132 31.2559C114.545 31.2559 114.07 31.3675 113.791 31.5908C113.484 31.814 113.344 32.0931 113.344 32.4559C113.344 32.735 113.428 32.9582 113.595 33.1257C113.763 33.2931 113.986 33.4047 114.238 33.4885C114.489 33.5722 114.852 33.6559 115.299 33.7396C115.802 33.8233 116.193 33.935 116.501 34.0187C116.808 34.1303 117.06 34.2978 117.283 34.521C117.507 34.7443 117.59 35.0792 117.59 35.4698C117.59 36.0001 117.367 36.4187 116.92 36.7536C116.473 37.0605 115.858 37.228 115.048 37.228C114.545 37.1722 114.042 37.0885 113.567 36.9489Z" fill="#32363C"/>
<path d="M122.982 36.7255C122.815 36.865 122.619 36.9767 122.396 37.0604C122.172 37.1441 121.921 37.172 121.669 37.172C121.111 37.172 120.691 37.0046 120.384 36.6976C120.077 36.3906 119.937 35.972 119.937 35.4139V31.2278H118.736V30.6976H119.909V29.3022H120.524V30.6976H122.563V31.2278H120.524V35.3581C120.524 35.7767 120.636 36.0836 120.831 36.3069C121.027 36.5302 121.334 36.6418 121.725 36.6418C122.116 36.6418 122.452 36.5302 122.731 36.279L122.982 36.7255Z" fill="#32363C"/>
<path d="M130.33 30.6978V37.1164H129.743V35.7489C129.52 36.1954 129.212 36.5582 128.793 36.8094C128.374 37.0605 127.871 37.1722 127.313 37.1722C126.475 37.1722 125.832 36.9489 125.357 36.4745C124.882 36.0001 124.631 35.3303 124.631 34.4652V30.6978H125.245V34.4094C125.245 35.135 125.441 35.6931 125.804 36.0559C126.167 36.4466 126.698 36.614 127.369 36.614C128.095 36.614 128.654 36.3908 129.073 35.9443C129.492 35.4978 129.715 34.8838 129.715 34.1303V30.6978H130.33Z" fill="#32363C"/>
<path d="M138.404 27.9907V37.1163H137.789V35.6093C137.538 36.1117 137.175 36.5023 136.728 36.7535C136.281 37.0326 135.75 37.1721 135.163 37.1721C134.576 37.1721 134.018 37.0326 133.543 36.7535C133.068 36.4744 132.677 36.0837 132.397 35.6093C132.118 35.107 131.978 34.5489 131.978 33.9349C131.978 33.293 132.118 32.7349 132.397 32.2326C132.677 31.7303 133.04 31.3396 133.543 31.0884C134.046 30.8372 134.576 30.6698 135.163 30.6698C135.75 30.6698 136.253 30.8093 136.7 31.0884C137.147 31.3675 137.51 31.7303 137.789 32.2326V28.0465H138.404V27.9907ZM136.532 36.2791C136.923 36.0558 137.231 35.721 137.454 35.3303C137.678 34.9117 137.789 34.4651 137.789 33.9349C137.789 33.4047 137.678 32.9303 137.454 32.5396C137.231 32.121 136.923 31.814 136.532 31.5907C136.141 31.3675 135.694 31.2558 135.219 31.2558C134.716 31.2558 134.297 31.3675 133.906 31.5907C133.515 31.814 133.208 32.1489 132.984 32.5396C132.761 32.9582 132.649 33.4047 132.649 33.9349C132.649 34.4651 132.761 34.9396 132.984 35.3303C133.208 35.7489 133.515 36.0558 133.906 36.2791C134.297 36.5023 134.744 36.614 135.219 36.614C135.694 36.614 136.141 36.5023 136.532 36.2791Z" fill="#32363C"/>
<path d="M140.695 28.9955C140.583 28.9118 140.555 28.7722 140.555 28.6327C140.555 28.4932 140.611 28.3815 140.695 28.2699C140.807 28.1583 140.918 28.1304 141.058 28.1304C141.198 28.1304 141.31 28.1862 141.421 28.2699C141.533 28.3536 141.561 28.4932 141.561 28.6327C141.561 28.7722 141.505 28.8839 141.421 28.9955C141.31 29.1071 141.198 29.135 141.058 29.135C140.918 29.135 140.807 29.1071 140.695 28.9955ZM140.751 30.6978H141.365V37.1164H140.751V30.6978Z" fill="#32363C"/>
<path d="M144.83 36.7532C144.355 36.4742 143.964 36.0835 143.684 35.5811C143.405 35.0788 143.265 34.5207 143.265 33.9067C143.265 33.2928 143.405 32.7346 143.684 32.2323C143.964 31.73 144.355 31.3393 144.83 31.0602C145.305 30.7811 145.863 30.6416 146.478 30.6416C147.093 30.6416 147.623 30.7811 148.126 31.0602C148.601 31.3393 148.992 31.73 149.272 32.2323C149.551 32.7346 149.691 33.2928 149.691 33.9067C149.691 34.5207 149.551 35.0788 149.272 35.5811C148.992 36.0835 148.601 36.4742 148.126 36.7532C147.651 37.0323 147.093 37.1718 146.478 37.1718C145.863 37.1718 145.333 37.0323 144.83 36.7532ZM147.791 36.2788C148.182 36.0556 148.49 35.7207 148.713 35.33C148.937 34.9114 149.048 34.4649 149.048 33.9346C149.048 33.4044 148.937 32.93 148.713 32.5393C148.49 32.1207 148.182 31.8137 147.791 31.5904C147.4 31.3672 146.953 31.2556 146.478 31.2556C145.975 31.2556 145.556 31.3672 145.165 31.5904C144.774 31.8137 144.466 32.1486 144.243 32.5393C144.019 32.9579 143.908 33.4044 143.908 33.9346C143.908 34.4649 144.019 34.9393 144.243 35.33C144.466 35.7486 144.774 36.0556 145.165 36.2788C145.556 36.5021 146.003 36.6137 146.478 36.6137C146.981 36.6137 147.4 36.5021 147.791 36.2788Z" fill="#32363C"/>
<path d="M41.0127 8.56744L40.6775 8.14884L37.9955 10.8279L38.2469 11.1628C40.8731 14.5395 42.3538 18.7535 42.3538 23.0233C42.3538 28.2419 40.2025 33.2651 36.4589 36.893L34.1121 34.5488C37.2411 31.5349 39.0292 27.3767 39.0292 23.0233C39.0292 19.6186 37.9675 16.3814 35.956 13.6465C35.3134 12.7814 34.587 11.9442 33.7768 11.2186C30.8434 8.56744 27.0159 7.08837 23.0767 7.08837C20.2549 7.08837 17.4891 7.81395 15.0864 9.23721L12.6838 6.83721C15.7849 4.82791 19.3889 3.79535 23.1046 3.79535C23.8868 3.79535 24.6691 3.85116 25.4514 3.93488C29.3068 4.43721 33.0225 6.11163 35.956 8.67907L36.2912 8.95814L38.9453 6.30698L38.5822 5.97209C38.3866 5.80465 38.1631 5.6093 37.9675 5.41395L37.6043 5.10698C36.1795 3.96279 34.587 2.95814 32.9108 2.17674C32.7711 2.12093 32.6314 2.06512 32.5196 1.9814L32.352 1.95349C32.2403 1.89767 32.1285 1.86977 32.0447 1.81395L31.8212 1.73023C31.7653 1.70233 31.6815 1.67442 31.6256 1.64651C31.5418 1.6186 31.4301 1.56279 31.3463 1.53488L31.1786 1.47907C31.0669 1.42326 30.9551 1.39535 30.8154 1.33954L30.7316 1.31163C30.5919 1.25581 30.4522 1.2 30.2846 1.17209C28.3569 0.530233 26.3733 0.167442 24.3897 0.055814C23.9427 0 23.4957 0 23.0487 0C18.2713 0 13.494 1.53488 9.61062 4.32558L9.24742 4.60465C9.02392 4.77209 8.80042 4.93953 8.57692 5.10698L8.15785 5.44186C7.85053 5.72093 7.57115 5.97209 7.34765 6.22326L7.04033 6.55814L14.7791 14.2884L15.1144 13.9814C15.1144 13.9814 16.4554 12.8093 17.3215 12.307L17.4611 12.2233C19.1933 11.3302 21.0931 10.8558 23.0767 10.8558C26.066 10.8558 28.9157 11.9442 31.1507 13.9256C31.905 14.5954 32.6035 15.3767 33.1622 16.214C34.5312 18.2233 35.2575 20.5953 35.2575 23.0233C35.2575 29.7488 29.7817 35.1907 23.0767 35.1907C16.3716 35.1907 10.8958 29.7209 10.8958 23.0233C10.8958 20.5953 11.6221 18.2512 12.9632 16.2419L13.1867 15.907L10.9516 13.6744L10.4208 13.2837L10.1414 13.6744C8.15785 16.4093 7.12415 19.6465 7.12415 23.0233C7.12415 27.3767 8.91217 31.5349 12.0412 34.5488L9.69443 36.893C5.95076 33.2651 3.79955 28.2419 3.79955 23.0233C3.79955 18.7535 5.25231 14.5395 7.87847 11.1907L8.10197 10.8837L5.41994 8.20465L5.08469 8.62326C1.81596 12.6698 0 17.8047 0 23.0512C0 30.0279 3.12904 36.5581 8.57692 40.9674L9.91793 42L15.0864 36.8372C17.517 38.2326 20.2549 38.986 23.0767 38.986C25.8984 38.986 28.6363 38.2326 31.0669 36.8372L35.062 40.8279L36.2633 42L37.6043 40.9674C43.0522 36.5581 46.1812 30.0279 46.1812 23.0512C46.1254 17.7767 44.3094 12.6419 41.0127 8.56744Z" fill="#32363C"/>
<path d="M24.9486 15.5442H21.177V30.5582H24.9486V15.5442Z" fill="#32363C"/>
<path d="M59.7031 9.73935H53.8362V6.97656H68.8388V9.73935H62.9718V24.6417H59.6752V9.73935H59.7031Z" fill="#32363C"/>
<path d="M71.8281 6.94873H75.1248V24.6138H71.8281V6.94873Z" fill="#32363C"/>
<path d="M105.605 6.94873L99.7381 24.6138H96.2459L91.8876 11.5255L87.4455 24.6138H83.9253L78.0583 6.94873H81.4668L85.853 20.372L90.4348 6.94873H93.48L97.9501 20.4557L102.476 6.94873H105.605Z" fill="#32363C"/>
<path d="M110.997 23.6932C109.544 22.9118 108.399 21.8234 107.589 20.4281C106.751 19.0327 106.359 17.4978 106.359 15.7676C106.359 14.0374 106.778 12.5025 107.589 11.1071C108.427 9.71178 109.544 8.62341 110.997 7.84202C112.45 7.06062 114.07 6.66992 115.886 6.66992C117.702 6.66992 119.323 7.06062 120.775 7.84202C122.228 8.62341 123.374 9.71178 124.184 11.0792C125.022 12.4467 125.413 14.0095 125.413 15.7397C125.413 17.4699 124.994 19.0327 124.184 20.4002C123.346 21.7676 122.228 22.856 120.775 23.6374C119.323 24.4188 117.702 24.8095 115.886 24.8095C114.07 24.8653 112.45 24.4746 110.997 23.6932ZM119.071 21.2095C120.021 20.6792 120.747 19.9257 121.306 18.9769C121.837 18.0281 122.116 16.9676 122.116 15.7955C122.116 14.6234 121.837 13.5629 121.306 12.6141C120.775 11.6653 120.021 10.9118 119.071 10.3816C118.121 9.85132 117.06 9.60016 115.886 9.60016C114.713 9.60016 113.651 9.85132 112.701 10.3816C111.751 10.9118 111.025 11.6653 110.466 12.6141C109.935 13.5629 109.656 14.6234 109.656 15.7955C109.656 16.9676 109.935 18.0281 110.466 18.9769C110.997 19.9257 111.751 20.6792 112.701 21.2095C113.651 21.7397 114.713 21.9909 115.886 21.9909C117.06 21.9909 118.121 21.7397 119.071 21.2095Z" fill="#32363C"/>
<path d="M140.22 24.6139L136.616 19.4511C136.476 19.479 136.225 19.479 135.946 19.479H131.95V24.6418H128.654V6.94873H135.918C137.454 6.94873 138.795 7.19989 139.913 7.70222C141.058 8.20455 141.924 8.93013 142.539 9.87897C143.154 10.8278 143.461 11.9441 143.461 13.2278C143.461 14.5673 143.126 15.7115 142.483 16.6604C141.84 17.6092 140.891 18.3348 139.689 18.8092L143.768 24.6139H140.22ZM139.047 10.6325C138.292 10.0185 137.231 9.71152 135.778 9.71152H131.95V16.7441H135.778C137.203 16.7441 138.292 16.4371 139.047 15.8232C139.801 15.2092 140.164 14.3441 140.164 13.1999C140.164 12.1115 139.773 11.2464 139.047 10.6325Z" fill="#32363C"/>
<path d="M148.909 24.3071C147.624 23.9164 146.618 23.414 145.891 22.7722L147.037 20.2326C147.763 20.8187 148.657 21.2652 149.691 21.628C150.753 21.9908 151.814 22.1582 152.876 22.1582C154.189 22.1582 155.167 21.935 155.809 21.5164C156.452 21.0978 156.787 20.5396 156.787 19.8419C156.787 19.3396 156.619 18.921 156.256 18.5861C155.893 18.2512 155.446 18.0001 154.887 17.8047C154.329 17.6094 153.574 17.414 152.624 17.1629C151.283 16.8559 150.194 16.521 149.356 16.214C148.518 15.9071 147.819 15.4047 147.204 14.7071C146.618 14.0373 146.31 13.1164 146.31 11.9443C146.31 10.9675 146.562 10.0745 147.093 9.2931C147.624 8.4838 148.434 7.86985 149.495 7.39543C150.557 6.92101 151.87 6.69775 153.435 6.69775C154.524 6.69775 155.586 6.83729 156.619 7.08845C157.653 7.36752 158.575 7.75822 159.329 8.26054L158.296 10.8001C157.513 10.3536 156.703 9.99078 155.865 9.76752C155.027 9.54427 154.217 9.40473 153.407 9.40473C152.121 9.40473 151.144 9.62799 150.501 10.0745C149.859 10.521 149.551 11.0791 149.551 11.8047C149.551 12.3071 149.719 12.7257 150.082 13.0326C150.445 13.3396 150.892 13.6187 151.451 13.7861C152.01 13.9815 152.764 14.1768 153.714 14.428C155.027 14.735 156.117 15.0419 156.955 15.3768C157.793 15.7117 158.519 16.214 159.106 16.8838C159.693 17.5536 160 18.4745 160 19.6187C160 20.5954 159.749 21.4885 159.218 22.2698C158.687 23.0512 157.877 23.6931 156.815 24.1675C155.725 24.6419 154.412 24.8652 152.876 24.8652C151.479 24.8652 150.166 24.6698 148.909 24.3071Z" fill="#32363C"/>
</svg>
